/* XPM */
static char * xfa_xpm[] = {
"48 48 606 2",
"  	c None",
". 	c #000000",
"+ 	c #000001",
"@ 	c #24251E",
"# 	c #10110E",
"$ 	c #2B2B26",
"% 	c #666857",
"& 	c #757863",
"* 	c #6A6D59",
"= 	c #0D0D0B",
"- 	c #2A2B26",
"; 	c #6E7062",
"> 	c #777A66",
", 	c #747761",
"' 	c #767964",
") 	c #797C66",
"! 	c #676956",
"~ 	c #070806",
"{ 	c #040404",
"] 	c #1F1F1D",
"^ 	c #282826",
"/ 	c #2F2F2C",
"( 	c #393936",
"_ 	c #4E4E4A",
": 	c #86867B",
"< 	c #818372",
"[ 	c #71745F",
"} 	c #737761",
"| 	c #767963",
"1 	c #7B7F68",
"2 	c #7E816A",
"3 	c #656754",
"4 	c #040403",
"5 	c #2E2E2C",
"6 	c #888880",
"7 	c #DDDDCF",
"8 	c #EFEFE0",
"9 	c #E5E5D6",
"0 	c #C0C2B5",
"a 	c #979989",
"b 	c #6E715D",
"c 	c #737661",
"d 	c #787C65",
"e 	c #7B7E68",
"f 	c #80846C",
"g 	c #83866E",
"h 	c #5E604E",
"i 	c #010101",
"j 	c #575754",
"k 	c #B4B4AA",
"l 	c #E9E9DA",
"m 	c #C6C7BB",
"n 	c #A9AB9E",
"o 	c #727562",
"p 	c #6E715C",
"q 	c #70735F",
"r 	c #787B65",
"s 	c #7B7E67",
"t 	c #7D816A",
"u 	c #80836C",
"v 	c #858970",
"w 	c #888C72",
"x 	c #545647",
"y 	c #2B2B2A",
"z 	c #92928C",
"A 	c #DCDCD1",
"B 	c #ECECDE",
"C 	c #CACBBD",
"D 	c #BBBCB2",
"E 	c #7C7F6D",
"F 	c #6B6E5A",
"G 	c #6E705C",
"H 	c #70735E",
"I 	c #7D8169",
"J 	c #82866E",
"K 	c #888B72",
"L 	c #8A8E74",
"M 	c #8D9177",
"N 	c #494A3D",
"O 	c #575755",
"P 	c #BABAB4",
"Q 	c #EEEEE3",
"R 	c #EEEEDF",
"S 	c #CECFC3",
"T 	c #C9CAC3",
"U 	c #919385",
"V 	c #686B58",
"W 	c #6B6D5A",
"X 	c #6D705C",
"Y 	c #737660",
"Z 	c #7A7E67",
"` 	c #7D8069",
" .	c #80836B",
"..	c #858870",
"+.	c #878B72",
"@.	c #8D9076",
"#.	c #8F9379",
"$.	c #92967B",
"%.	c #404236",
"&.	c #191918",
"*.	c #999995",
"=.	c #DDDDD5",
"-.	c #F1F1E4",
";.	c #F0F0E1",
">.	c #F1F1E5",
",.	c #D3D3C9",
"'.	c #CECFC8",
").	c #B1B2A8",
"!.	c #696C5A",
"~.	c #686B57",
"{.	c #6A6D5A",
"].	c #727560",
"^.	c #757862",
"/.	c #7A7D67",
"(.	c #7F836B",
"_.	c #82856D",
":.	c #8A8D74",
"<.	c #8C9076",
"[.	c #8F9378",
"}.	c #94987D",
"|.	c #95997E",
"1.	c #2A2B23",
"2.	c #5B5B58",
"3.	c #C8C8C3",
"4.	c #F1F1E8",
"5.	c #F0F0E2",
"6.	c #F1F1E3",
"7.	c #F2F2E6",
"8.	c #F4F4E9",
"9.	c #F6F6ED",
"0.	c #D2D2CA",
"a.	c #E1E1DE",
"b.	c #717463",
"c.	c #656855",
"d.	c #686A57",
"e.	c #6F725E",
"f.	c #777A64",
"g.	c #7F826B",
"h.	c #84886F",
"i.	c #91957B",
"j.	c #737662",
"k.	c #656955",
"l.	c #010102",
"m.	c #141411",
"n.	c #A0A09B",
"o.	c #F3F3F0",
"p.	c #FBFBF6",
"q.	c #F3F3E7",
"r.	c #F3F3E8",
"s.	c #F5F5EB",
"t.	c #F6F6EE",
"u.	c #F8F8F2",
"v.	c #FAFAF5",
"w.	c #FBFBF8",
"x.	c #F9F9F8",
"y.	c #E6E7E4",
"z.	c #939488",
"A.	c #676A57",
"B.	c #6D6F5B",
"C.	c #747862",
"D.	c #7A7D66",
"E.	c #7C8069",
"F.	c #878A71",
"G.	c #898D74",
"H.	c #8F9278",
"I.	c #91957A",
"J.	c #93977E",
"K.	c #7D806A",
"L.	c #6A6E58",
"M.	c #70745E",
"N.	c #070807",
"O.	c #BDBDB0",
"P.	c #E4E5D5",
"Q.	c #C7C8BC",
"R.	c #9FA095",
"S.	c #9C9D95",
"T.	c #B1B2AB",
"U.	c #BBBBB6",
"V.	c #BFBFB9",
"W.	c #C7C7C2",
"X.	c #CECECC",
"Y.	c #D9DAD7",
"Z.	c #D9D9D7",
"`.	c #85867E",
" +	c #535449",
".+	c #D8D8D1",
"++	c #989A8A",
"@+	c #6C6F5B",
"#+	c #6F725D",
"$+	c #747762",
"%+	c #797D66",
"&+	c #7C7F68",
"*+	c #81856D",
"=+	c #84876F",
"-+	c #898D73",
";+	c #8C8F76",
">+	c #8E9278",
",+	c #91947A",
"'+	c #82836D",
")+	c #686C5A",
"!+	c #6E725C",
"~+	c #757962",
"{+	c #030304",
"]+	c #A2A297",
"^+	c #DEDFCE",
"/+	c #E2E2D1",
"(+	c #E8E8D8",
"_+	c #E1E2D3",
":+	c #BFC1B2",
"<+	c #7C7F6F",
"[+	c #595C4B",
"}+	c #5A5D4B",
"|+	c #5A5D4C",
"1+	c #636755",
"2+	c #D6D7CF",
"3+	c #9A9C8C",
"4+	c #7E826A",
"5+	c #81846D",
"6+	c #868A71",
"7+	c #82856F",
"8+	c #6B6C5B",
"9+	c #98988D",
"0+	c #E3E3D3",
"a+	c #E9EADA",
"b+	c #E0E1D2",
"c+	c #B9BBAC",
"d+	c #818471",
"e+	c #D4D5C8",
"f+	c #9EA08E",
"g+	c #81846C",
"h+	c #575C4F",
"i+	c #474E46",
"j+	c #4C544E",
"k+	c #4B524D",
"l+	c #454A43",
"m+	c #585A4A",
"n+	c #777B64",
"o+	c #797D65",
"p+	c #8E8E84",
"q+	c #E3E4D4",
"r+	c #E2E3D3",
"s+	c #BFC0B1",
"t+	c #8F927E",
"u+	c #83876F",
"v+	c #878B74",
"w+	c #D4D5C6",
"x+	c #A0A28F",
"y+	c #3F4942",
"z+	c #6D7F84",
"A+	c #A5BDCA",
"B+	c #B2C6D5",
"C+	c #ACBFD1",
"D+	c #A9BED1",
"E+	c #A5BDCE",
"F+	c #8499A5",
"G+	c #434D4B",
"H+	c #565B4B",
"I+	c #787C67",
"J+	c #83837A",
"K+	c #E8EADA",
"L+	c #BCBDAD",
"M+	c #9B9E86",
"N+	c #989C80",
"O+	c #9B9F83",
"P+	c #D4D5C5",
"Q+	c #A3A691",
"R+	c #656B58",
"S+	c #4F6162",
"T+	c #BCD0DA",
"U+	c #BFCBD9",
"V+	c #B6C4D4",
"W+	c #B0BFD0",
"X+	c #AABACD",
"Y+	c #A3B5C9",
"Z+	c #9DB0C5",
"`+	c #97ABC2",
" @	c #96ADC3",
".@	c #7D939E",
"+@	c #474D44",
"@@	c #7A7C67",
"#@	c #787870",
"$@	c #DFE0CF",
"%@	c #E4E5D4",
"&@	c #EAEADB",
"*@	c #DFE0D0",
"=@	c #B9BBAA",
"-@	c #9B9F87",
";@	c #AEB0A0",
">@	c #647A7B",
",@	c #D3DEE6",
"'@	c #CBD5E0",
")@	c #91A6BE",
"!@	c #8BA1BA",
"~@	c #8EA8B8",
"{@	c #494F45",
"]@	c #7A7C68",
"^@	c #6D6D66",
"/@	c #DFE0CE",
"(@	c #E6E7D7",
"_@	c #5A6868",
":@	c #DCE7EC",
"<@	c #D8DFE8",
"[@	c #849CB7",
"}@	c #7B929E",
"|@	c #5F6453",
"1@	c #7A7D69",
"2@	c #61615B",
"3@	c #7D837A",
"4@	c #C8DADE",
"5@	c #E4E9EF",
"6@	c #849EB8",
"7@	c #475150",
"8@	c #7A7D6A",
"9@	c #4B4B47",
"0@	c #687473",
"a@	c #F1F3F6",
"b@	c #7E97B3",
"c@	c #7B93A4",
"d@	c #686C59",
"e@	c #7B7D6B",
"f@	c #2F302D",
"g@	c #E1E2D0",
"h@	c #C9CABB",
"i@	c #A4B1B4",
"j@	c #8BA7C0",
"k@	c #4C524A",
"l@	c #7D7F6B",
"m@	c #141413",
"n@	c #E2E3D1",
"o@	c #ACADA0",
"p@	c #C9D5D8",
"q@	c #819DB9",
"r@	c #4B534D",
"s@	c #7C7E6D",
"t@	c #DCDCCD",
"u@	c #A0A295",
"v@	c #D7E1E4",
"w@	c #7D97B4",
"x@	c #4C5550",
"y@	c #7E806E",
"z@	c #D2D2C4",
"A@	c #DDDECD",
"B@	c #DCDECD",
"C@	c #DCDDCC",
"D@	c #B2B3A5",
"E@	c #C6D1D3",
"F@	c #849FBB",
"G@	c #4A524B",
"H@	c #7F8170",
"I@	c #C7C7BA",
"J@	c #DBDCCC",
"K@	c #DBDCCB",
"L@	c #DADBCA",
"M@	c #D0D1C1",
"N@	c #9AA4A6",
"O@	c #8AA6BD",
"P@	c #565C4F",
"Q@	c #808172",
"R@	c #BBBDAF",
"S@	c #DCDDCD",
"T@	c #DADBCB",
"U@	c #D9DBCA",
"V@	c #D9DAC9",
"W@	c #D8D9C9",
"X@	c #D7D8C8",
"Y@	c #666E6B",
"Z@	c #F0F2F6",
"`@	c #6C808C",
" #	c #818273",
".#	c #B0B2A4",
"+#	c #DBDBCB",
"@#	c #22221F",
"##	c #84857B",
"$#	c #DDDECE",
"%#	c #D9DACA",
"&#	c #D8DAC9",
"*#	c #D8D9C8",
"=#	c #D6D7C7",
"-#	c #D5D7C6",
";#	c #A1A398",
">#	c #BDC9CC",
",#	c #8AA4BC",
"'#	c #484E4A",
")#	c #858971",
"!#	c #838475",
"~#	c #A6A699",
"{#	c #050505",
"]#	c #A4A598",
"^#	c #78796F",
"/#	c #63635C",
"(#	c #D6D8C8",
"_#	c #D6D8C7",
":#	c #D5D6C6",
"<#	c #D4D6C5",
"[#	c #D3D5C5",
"}#	c #D3D4C4",
"|#	c #656A67",
"1#	c #DAE5EB",
"2#	c #869EBA",
"3#	c #566369",
"4#	c #A9ABA7",
"5#	c #90908A",
"6#	c #77786B",
"7#	c #999A8E",
"8#	c #353531",
"9#	c #585952",
"0#	c #41413C",
"a#	c #40403B",
"b#	c #85867C",
"c#	c #9E9E93",
"d#	c #909186",
"e#	c #BBBDAE",
"f#	c #D2D4C4",
"g#	c #D2D3C3",
"h#	c #D1D2C2",
"i#	c #D1D2C4",
"j#	c #626968",
"k#	c #D0DDE5",
"l#	c #8EA5BD",
"m#	c #63727C",
"n#	c #91918E",
"o#	c #E1E1E1",
"p#	c #ECEDEC",
"q#	c #8C8C8A",
"r#	c #060606",
"s#	c #8E8F84",
"t#	c #B0B1A3",
"u#	c #54544D",
"v#	c #CECFBF",
"w#	c #696961",
"x#	c #1C1C1A",
"y#	c #898A7F",
"z#	c #5A5B54",
"A#	c #6F6F67",
"B#	c #D1D3C3",
"C#	c #D0D2C2",
"D#	c #CFD1C1",
"E#	c #CED0C0",
"F#	c #474E4A",
"G#	c #A8B8C0",
"H#	c #BFCCDA",
"I#	c #98B0C3",
"J#	c #4F5A5D",
"K#	c #787975",
"L#	c #C8C9C8",
"M#	c #D4D4D4",
"N#	c #E0E0E0",
"O#	c #EBECEB",
"P#	c #8D8D8D",
"Q#	c #6A6B63",
"R#	c #828379",
"S#	c #CED0BF",
"T#	c #2B2B27",
"U#	c #97998D",
"V#	c #030302",
"W#	c #5E5F58",
"X#	c #AFB0A3",
"Y#	c #CFD0C0",
"Z#	c #CECFC0",
"`#	c #CDCFBF",
" $	c #D4D6C6",
".$	c #616555",
"+$	c #4F5855",
"@$	c #7E8D93",
"#$	c #A0B3BF",
"$$	c #A6BAC9",
"%$	c #9DB3C2",
"&$	c #8599A4",
"*$	c #5A6667",
"=$	c #53594E",
"-$	c #888C73",
";$	c #65675C",
">$	c #ACADAC",
",$	c #C7C8C7",
"'$	c #D3D3D3",
")$	c #DFDFDF",
"!$	c #EBEBEB",
"~$	c #AAABAA",
"{$	c #020202",
"]$	c #5B5B54",
"^$	c #ACAEA0",
"/$	c #D6D7C6",
"($	c #A6A79B",
"_$	c #ADAEA1",
":$	c #D3D5C4",
"<$	c #606059",
"[$	c #7B7B72",
"}$	c #B2B4A5",
"|$	c #7A7B71",
"1$	c #4F4F49",
"2$	c #CFD0C1",
"3$	c #B3B3A6",
"4$	c #464741",
"5$	c #828278",
"6$	c #D5D6C5",
"7$	c #81856C",
"8$	c #7C8068",
"9$	c #5F6352",
"0$	c #656956",
"a$	c #8E9277",
"b$	c #6D6F5C",
"c$	c #282823",
"d$	c #252525",
"e$	c #A4A4A4",
"f$	c #C6C7C6",
"g$	c #D2D3D2",
"h$	c #DEDEDE",
"i$	c #EAEAEA",
"j$	c #ADAEAD",
"k$	c #232320",
"l$	c #717169",
"m$	c #C3C5B5",
"n$	c #383833",
"o$	c #CDCEBE",
"p$	c #CCCEBE",
"q$	c #C5C7B7",
"r$	c #7A7B72",
"s$	c #52524C",
"t$	c #282926",
"u$	c #B8BAAC",
"v$	c #D3D5C3",
"w$	c #868A70",
"x$	c #8B8F75",
"y$	c #2A2C24",
"z$	c #9FA09F",
"A$	c #C5C6C5",
"B$	c #D1D2D1",
"C$	c #DDDDDD",
"D$	c #E9E9E9",
"E$	c #B5B5B5",
"F$	c #050504",
"G$	c #444540",
"H$	c #9B9C90",
"I$	c #1D1E1B",
"J$	c #2A2B27",
"K$	c #75776D",
"L$	c #C7C9BA",
"M$	c #D2D4C2",
"N$	c #47493C",
"O$	c #9D9D9D",
"P$	c #C4C5C4",
"Q$	c #D0D1D0",
"R$	c #DCDCDC",
"S$	c #E8E8E8",
"T$	c #BBBBBB",
"U$	c #1E1F1C",
"V$	c #6C6D65",
"W$	c #BABBAD",
"X$	c #CACCBC",
"Y$	c #595A53",
"Z$	c #6B6B64",
"`$	c #BABCAD",
" %	c #4E4E49",
".%	c #63645C",
"+%	c #C6C7B8",
"@%	c #C9CABC",
"#%	c #D0D2C1",
"$%	c #626553",
"%%	c #10110D",
"&%	c #979797",
"*%	c #C3C4C3",
"=%	c #CFD0CF",
"-%	c #DBDCDB",
";%	c #E7E7E7",
">%	c #43433E",
",%	c #82837A",
"'%	c #C0C1B3",
")%	c #C6C8B8",
"!%	c #5D5D57",
"~%	c #7C7E74",
"{%	c #C4C6B7",
"]%	c #C5C7B9",
"^%	c #CFD1C0",
"/%	c #757963",
"(%	c #262720",
"_%	c #919191",
":%	c #C2C3C2",
"<%	c #CECFCE",
"[%	c #DADBDA",
"}%	c #E6E6E6",
"|%	c #C2C2C2",
"1%	c #1B1B19",
"2%	c #62635C",
"3%	c #8D8F83",
"4%	c #A6A89A",
"5%	c #C2C4B5",
"6%	c #C8CAB9",
"7%	c #414337",
"8%	c #898A89",
"9%	c #CDCECD",
"0%	c #D9DAD9",
"a%	c #CDCDCD",
"b%	c #030303",
"c%	c #3E3E39",
"d%	c #8B8D82",
"e%	c #A6A79C",
"f%	c #5D5E50",
"g%	c #0B0B09",
"h%	c #818181",
"i%	c #C1C1C1",
"j%	c #BDBEBD",
"k%	c #585858",
"l%	c #111111",
"m%	c #131310",
"n%	c #696A69",
"o%	c #515051",
"                                                                                                ",
"                                                                                                ",
"                                                                                                ",
"                                                            . .                                 ",
"                                                        . + @ # .                               ",
"                                                    . . $ % & * = .                             ",
"                                      . . . . . . . - ; > , ' ) ! ~ .                           ",
"                                  . . { ] ^ / ( _ : < [ } | ) 1 2 3 4 .                         ",
"                            . . . 5 6 7 8 8 9 0 a b [ c | d e 2 f g h i .                       ",
"                        . . i j k 8 8 8 l m n o p q c | r s t u g v w x . .                     ",
"                    . . y z A 8 8 8 B C D E F G H c & r s I u J v K L M N .                     ",
"              . . . O P Q 8 8 8 R S T U V W X H Y & r Z `  .J ..+.L @.#.$.%..                   ",
"          . . &.*.=.-.8 8 ;.>.,.'.).!.~.{.X H ].^.r /.` (._...+.:.<.[.$.}.|.1..                 ",
"      . . 2.3.4.5.8 6.7.8.9.0.a.b.c.d.* X e.].^.f./.` g._.h.+.:.<.[.i.}.|.j.k.l..               ",
"    m.n.o.p.8.q.r.s.t.u.v.w.x.y.z.A.* B.e.].C.f.D.E.g._.h.F.G.<.H.I.J.K.L.M.Y N..               ",
"  . O.P.Q.R.S.T.U.V.W.X.Y.Z.`. +.+++@+#+].$+f.%+&+g.*+=+F.-+;+>+,+'+)+!+M.Y ~+{+.               ",
"  . ]+^+/+(+_+:+<+[+}+|+|+|+|+|+1+2+3+[ $+f.) &+4+5+=+6+-+;+>+7+8+@+!+M.Y ~+d . .               ",
"  . 9+^+^+^+^+0+a+b+c+d+#+#+#+#+#+' e+f+' ) &+4+g+/.h+i+j+k+l+m+@+!+M.Y ~+n+o+. .               ",
"  . p+^+^+^+^+^+^+^+q+a+r+s+t+u+u+u+v+w+x+1 2 | y+z+A+B+C+D+E+F+G+H+Y ~+n+%+I+. .               ",
"  . J+^+^+^+^+^+^+^+^+^+^+q+K+b+L+M+N+O+P+Q+R+S+T+U+V+W+X+Y+Z+`+ @.@+@n+%+1 @@. .               ",
"  . #@^+^+^+^+^+^+^+^+^+^+^+^+$@%@&@*@=@-@;@>@,@'@U+V+W+X+Y+Z+`+)@!@~@{@1 I ]@.                 ",
"    ^@^+^+^+^+^+^+^+^+^+^+^+^+^+^+^+/@%@(@_@:@<@'@U+V+W+X+Y+Z+`+)@!@[@}@|@(.1@.                 ",
"    2@^+^+^+^+^+^+^+^+^+^+^+^+^+^+^+^+^+3@4@5@<@'@U+V+W+X+Y+Z+`+)@!@[@6@7@f 8@.                 ",
"    9@$@^+^+^+^+^+^+^+^+^+^+^+^+^+^+^+^+0@a@5@<@'@U+V+W+X+Y+Z+`+)@!@[@b@c@d@e@.                 ",
"    f@g@^+^+^+^+^+^+^+^+^+^+^+^+^+^+^+h@i@a@5@<@'@U+V+W+X+Y+Z+`+)@!@[@b@j@k@l@.                 ",
"    m@n@^+^+^+^+^+^+^+^+^+^+^+^+^+^+^+o@p@a@5@<@'@U+V+W+X+Y+Z+`+)@!@[@b@q@r@s@.                 ",
"    . t@^+^+^+^+^+^+^+^+^+^+^+^+^+^+^+u@v@a@5@<@'@U+V+W+X+Y+Z+`+)@!@[@b@w@x@y@.                 ",
"    . z@^+^+^+^+^+^+^+^+^+^+^+^+A@B@C@D@E@a@5@<@'@U+V+W+X+Y+Z+`+)@!@[@b@F@G@H@.                 ",
"    . I@^+^+^+^+^+^+^+^+^+^+A@C@J@K@L@M@N@a@5@<@'@U+V+W+X+Y+Z+`+)@!@[@b@O@P@Q@.                 ",
"    . R@^+^+^+^+^+^+^+A@S@C@K@T@U@V@W@X@Y@Z@5@<@'@U+V+W+X+Y+Z+`+)@!@[@b@`@t  #.                 ",
"    . .#^++#@###$#A@C@J@K@L@%#&#*#X@=#-#;#>#5@<@'@U+V+W+X+Y+Z+`+)@!@[@,#'#)#!#.                 ",
"    . ~#^+A@{#]#L@^#/#(#V@W@X@_#=#:#<#[#}#|#1#<@'@U+V+W+X+Y+Z+`+)@!@2#3#4#5#6#.                 ",
"    . 7#A@C@8#9#0#a#b#-#c#d#e#:#P+}#f#g#h#i#j#k#'@U+V+W+X+Y+Z+`+)@l#m#n#o#p#q#r#                ",
"    . s#t#u#8#a#v#X@_#w#x#y#z#A#g#B#C#M@D#(#E#F#G#H#V+W+X+Y+Z+`+I#J#K#L#M#N#O#P#                ",
"    . Q#R#h@S#T#g#:#U#V#W#X#g#h#C#D#Y#Z#`# $=#I .$+$@$#$$$%$&$*$=$-$;$>$,$'$)$!$~$              ",
"      {$]$^$/$($_$:$<$[$}$|$1$2$E#`#3$4$5$i#6$(.7$J 8$~.9$0$r <.a$b$c$d$e$f$g$h$i$j$            ",
"        . . k$l$m$B#n$o$D#E#v#p$q$r$s$t$u$Z#v$7$J h.w$+.-+x$<.D.y$. .     z$A$B$C$D$E$          ",
"            . . F$G$z.`#`#o$p$H$I$J$K$8#L$p$M$J h.w$+.-+x$F.N$4 . .         O$P$Q$R$S$T$        ",
"                  . . U$V$W$X$Y$Z$`$ %.%+%@%#%h.w$+.-+x$$%%%. .               &%*%=%-%;%T$      ",
"                      . . 4 >%,%'%)%!%~%{%]%^%w$+.-+/%(%. .                     _%:%<%[%}%|%    ",
"                            . . 1%2%3%4%5%6%r++.f 7%{$. .                         8%|%9%0%a%    ",
"                                . . b%c%d%2$e%f%g%. .                               h%i%j%k%    ",
"                                      . . l%m%. .                                     n%o%      ",
"                                                                                                ",
"                                                                                                ",
"                                                                                                ",
"                                                                                                ",
"                                                                                                "};
