<?xml version="1.0" encoding="UTF-8" standalone="no"?>
<!-- Created with Inkscape (http://www.inkscape.org/) -->

<svg
   id="svg1"
   width="128"
   height="128"
   version="1.0"
   xmlns:xlink="http://www.w3.org/1999/xlink"
   xmlns="http://www.w3.org/2000/svg"
   xmlns:svg="http://www.w3.org/2000/svg"
   xmlns:rdf="http://www.w3.org/1999/02/22-rdf-syntax-ns#"
   xmlns:cc="http://creativecommons.org/ns#"
   xmlns:dc="http://purl.org/dc/elements/1.1/">
  <metadata
     id="metadata114">
    <rdf:RDF>
      <cc:Work
         rdf:about="">
        <dc:format>image/svg+xml</dc:format>
        <dc:type
           rdf:resource="http://purl.org/dc/dcmitype/StillImage" />
      </cc:Work>
    </rdf:RDF>
  </metadata>
  <defs
     id="defs3">
    <linearGradient
       id="linearGradient1214">
      <stop
         style="stop-color:#f3f3f3;stop-opacity:1.0000000;"
         offset="0.0000000"
         id="stop1215" />
      <stop
         style="stop-color:#cccccc;stop-opacity:1.0000000;"
         offset="1.0000000"
         id="stop1216" />
    </linearGradient>
    <linearGradient
       id="linearGradient984">
      <stop
         style="stop-color:#6c80a9;stop-opacity:1.0000000;"
         offset="0.0000000"
         id="stop985" />
      <stop
         style="stop-color:#8b9dc0;stop-opacity:1.0000000;"
         offset="1.0000000"
         id="stop986" />
    </linearGradient>
    <linearGradient
       id="linearGradient869">
      <stop
         style="stop-color:#576682;stop-opacity:1.0000000;"
         offset="0.0000000"
         id="stop870" />
      <stop
         style="stop-color:#6b80a9;stop-opacity:1.0000000;"
         offset="1.0000000"
         id="stop871" />
    </linearGradient>
    <linearGradient
       xlink:href="#linearGradient984"
       id="linearGradient873"
       x1="-5.1072699e-17"
       y1="0.984375"
       x2="-5.9895394e-17"
       y2="0.1796875" />
    <linearGradient
       xlink:href="#linearGradient984"
       id="linearGradient877"
       x1="0.60869563"
       y1="0.4609375"
       x2="0.50931674"
       y2="0.34375" />
    <linearGradient
       xlink:href="#linearGradient1214"
       id="linearGradient988"
       x1="0.0052910051"
       y1="0.984375"
       x2="0.99470901"
       y2="0.0078125" />
    <linearGradient
       xlink:href="#linearGradient984"
       id="linearGradient3898"
       gradientUnits="userSpaceOnUse"
       gradientTransform="matrix(0.935998,0,0,0.550765,30.59473,31.91764)"
       x1="8.3368893"
       y1="266.42126"
       x2="8.3368893"
       y2="138.54814" />
    <linearGradient
       xlink:href="#linearGradient869"
       id="linearGradient3923"
       gradientUnits="userSpaceOnUse"
       gradientTransform="matrix(0.747936,0,0,0.689251,30.55848,158.6478)"
       x1="30.622637"
       y1="-97.787552"
       x2="26.242413"
       y2="-140.48618" />
    <linearGradient
       xlink:href="#linearGradient984"
       id="linearGradient3927"
       gradientUnits="userSpaceOnUse"
       gradientTransform="matrix(0.749983,0,0,0.687369,30.59472,159.9009)"
       x1="129.0108"
       y1="-67.418991"
       x2="111.2336"
       y2="-88.381859" />
    <linearGradient
       xlink:href="#linearGradient984"
       id="linearGradient2931"
       gradientUnits="userSpaceOnUse"
       gradientTransform="matrix(0.935998,0,0,0.550765,30.59473,31.91764)"
       x1="8.3368893"
       y1="266.42126"
       x2="8.3368893"
       y2="138.54814" />
    <linearGradient
       xlink:href="#linearGradient869"
       id="linearGradient2953"
       gradientUnits="userSpaceOnUse"
       gradientTransform="matrix(0.747936,0,0,0.689251,30.55848,158.6478)"
       x1="30.622637"
       y1="-97.787552"
       x2="26.242413"
       y2="-140.48618" />
    <linearGradient
       xlink:href="#linearGradient984"
       id="linearGradient2957"
       gradientUnits="userSpaceOnUse"
       gradientTransform="matrix(0.749983,0,0,0.687369,30.59472,159.9009)"
       x1="129.0108"
       y1="-67.418991"
       x2="111.2336"
       y2="-88.381859" />
    <linearGradient
       xlink:href="#linearGradient984"
       id="linearGradient21958"
       gradientUnits="userSpaceOnUse"
       gradientTransform="matrix(0.62258745,0,0,0.57194202,-4.0184063,99.901534)"
       x1="129.0108"
       y1="-67.418991"
       x2="111.2336"
       y2="-88.381859" />
    <linearGradient
       xlink:href="#linearGradient869"
       id="linearGradient21960"
       gradientUnits="userSpaceOnUse"
       gradientTransform="matrix(0.62088817,0,0,0.57350799,-4.0484904,98.858861)"
       x1="30.622637"
       y1="-97.787552"
       x2="26.242413"
       y2="-140.48618" />
    <linearGradient
       xlink:href="#linearGradient984"
       id="linearGradient21962"
       gradientUnits="userSpaceOnUse"
       gradientTransform="matrix(0.77700509,0,0,0.45827736,-4.018398,-6.5900376)"
       x1="8.3368893"
       y1="266.42126"
       x2="8.3368893"
       y2="138.54814" />
  </defs>
  <g
     id="g1171">
    <path
       id="path947"
       d="m 9.8880746,14.183035 c -0.7626537,0 -1.3766327,0.705046 -1.3766327,1.580823 v 99.148992 c 0,0.87578 0.613979,1.58083 1.3766327,1.58083 H 118.50522 c 0.76266,0 1.37664,-0.70505 1.37664,-1.58083 V 25.348987 c 0,-0.875777 -0.61398,-1.580824 -1.37664,-1.580824 H 58.424048 c -1.005169,0 -2.077904,-0.679605 -2.667856,-1.614148 l -4.033134,-6.388817 c -0.649806,-1.029346 -1.915045,-1.582109 -3.022185,-1.582111 z"
       style="fill:none;fill-rule:evenodd;stroke:#000000;stroke-width:0.622069pt;stroke-linecap:round;stroke-linejoin:round" />
    <path
       id="path895"
       d="m 9.8880804,14.183011 c -0.7626537,0 -1.3766327,0.705049 -1.3766327,1.580825 v 99.148994 c 0,0.87577 0.613979,1.58082 1.3766327,1.58082 H 118.50523 c 0.76266,0 1.37663,-0.70505 1.37663,-1.58082 V 25.348964 c 0,-0.875775 -0.61397,-1.580824 -1.37663,-1.580824 H 58.424056 c -1.005169,0 -2.077903,-0.679605 -2.667856,-1.614146 l -4.033137,-6.388822 c -0.649804,-1.02934 -1.915044,-1.58211 -3.022184,-1.58211 z"
       style="fill:url(#linearGradient21958);fill-rule:evenodd;stroke-width:0.866401pt" />
    <path
       id="path949"
       d="m 9.8770537,14.183011 c -0.7565447,0 -1.365606,0.705049 -1.365606,1.580825 v 99.148994 c 0,0.87577 0.6090613,1.58082 1.365606,1.58082 H 117.62416 c 0.75654,0 1.36561,-0.70505 1.36561,-1.58082 V 25.348964 c 0,-0.875775 -0.60907,-1.580824 -1.36561,-1.580824 H 58.024246 c -0.997117,0 -2.061259,-0.679605 -2.646488,-1.614146 L 51.37693,15.765172 c -0.644601,-1.02934 -1.899706,-1.58211 -2.997976,-1.58211 z"
       style="fill:#ffffff;fill-opacity:1;fill-rule:evenodd;stroke-width:0.866401pt" />
    <path
       id="path951"
       d="m 10.885971,14.339308 c -0.753716,0 -1.3605004,0.696781 -1.3605004,1.562294 v 97.987068 c 0,0.86551 0.6067844,1.5623 1.3605004,1.5623 H 117.62994 c 0.75371,0 1.3605,-0.69679 1.3605,-1.5623 V 25.374403 c 0,-0.865512 -0.60679,-1.562299 -1.3605,-1.562299 l -59.820881,7e-6 c -0.993398,0 -2.053556,-0.671643 -2.636602,-1.595238 L 51.186588,15.902931 C 50.544393,14.885644 49.293983,14.33936 48.199815,14.33936 Z"
       style="fill:url(#linearGradient21960);fill-rule:evenodd;stroke-width:0.866401pt" />
    <path
       id="path952"
       d="m 10.912298,13.827103 c -0.753715,0 -1.3573368,0.693154 -1.3573368,1.558667 v 97.97622 c 0,0.86552 0.6036218,1.55867 1.3573368,1.55867 H 117.65473 c 0.75372,-1e-5 1.35734,-0.69315 1.35734,-1.55867 V 24.85767 c 0,-0.865513 -0.60362,-1.558667 -1.35734,-1.558667 H 57.844862 c -0.993389,0 -2.062023,-0.675045 -2.645068,-1.598633 l -3.985005,-6.3146 c -0.642195,-1.017281 -1.898938,-1.558667 -2.993105,-1.558667 z m 1.879391,2.917505 h 36.004253 c 1.055846,0 2.251595,0.513308 2.871293,1.478735 l 3.845794,5.994874 c 0.562616,0.876511 1.599455,1.518702 2.558054,1.518702 h 57.721657 c 0.72731,0 1.30513,0.657338 1.30513,1.478735 v 84.008166 c 0,0.8214 -0.57782,1.47873 -1.30513,1.47873 H 12.791689 c -0.727317,0 -1.322534,-0.65733 -1.322534,-1.47873 V 18.223343 c 0,-0.821397 0.595216,-1.478735 1.322534,-1.478735 z"
       style="opacity:0.0531915;fill:#ffffff;fill-rule:evenodd;stroke-width:0.866401pt" />
    <path
       id="path953"
       d="m 10.912298,13.827103 c -0.753715,0 -1.3573368,0.693154 -1.3573368,1.558667 v 97.97622 c 0,0.86552 0.6036218,1.55867 1.3573368,1.55867 H 117.65473 c 0.75372,-1e-5 1.35734,-0.69315 1.35734,-1.55867 V 24.85767 c 0,-0.865513 -0.60362,-1.558667 -1.35734,-1.558667 H 57.844862 c -0.993389,0 -2.062023,-0.675045 -2.645068,-1.598633 l -3.985005,-6.3146 c -0.642195,-1.017281 -1.898938,-1.558667 -2.993105,-1.558667 z m 0.609062,1.119043 h 36.891744 c 1.081934,0 2.323284,0.537038 2.958301,1.538684 l 3.932803,6.214686 c 0.576521,0.909392 1.62797,1.57865 2.610261,1.57865 h 59.148601 c 0.74529,0 1.33993,0.686472 1.33994,1.538684 v 87.14548 c 0,0.85222 -0.59465,1.53869 -1.33994,1.53869 H 11.52136 c -0.74529,0 -1.357338,-0.68648 -1.357338,-1.53869 v -96.4775 c 0,-0.852212 0.612048,-1.538684 1.357338,-1.538684 z"
       style="opacity:0.170213;fill:#ffffff;fill-rule:evenodd;stroke-width:0.866401pt" />
    <g
       style="opacity:0.414894;stroke-width:0.34749"
       transform="matrix(0.56769724,0,0,0.65190103,-154.21574,-3.4122297)"
       id="g1229">
      <path
         id="path1222"
         d="m 309.00751,53.750008 c -1.52766,0 -2.75751,1.22985 -2.75751,2.757512 v 104.48497 c 0,1.52766 1.22985,2.75751 2.75751,2.75751 H 463.4925 c 1.52766,0 2.75752,-1.22985 2.75752,-2.75751 V 56.50752 c 0,-1.527662 -1.22986,-2.757512 -2.75752,-2.757512 z"
         style="opacity:0.05;fill-rule:evenodd;stroke-width:1.04247pt" />
      <path
         id="path1223"
         d="m 307.8006,52.500008 c -1.55153,0 -2.8006,1.257801 -2.8006,2.820183 V 162.17982 C 305,163.7422 306.24907,165 307.8006,165 h 156.89878 c 1.55153,0 2.8006,-1.2578 2.8006,-2.82018 V 55.320191 c 0,-1.562382 -1.24907,-2.820183 -2.8006,-2.820183 z"
         style="opacity:0.05;fill-rule:evenodd;stroke-width:1.04247pt" />
      <path
         id="path1224"
         d="m 306.59369,51.250008 c -1.5754,0 -2.84369,1.285752 -2.84369,2.882854 V 163.36715 c 0,1.5971 1.26829,2.88285 2.84369,2.88285 h 159.31264 c 1.5754,0 2.84369,-1.28575 2.84369,-2.88285 V 54.132862 c 0,-1.597102 -1.26829,-2.882854 -2.84369,-2.882854 z"
         style="opacity:0.05;fill-rule:evenodd;stroke-width:1.04247pt" />
      <path
         id="path1225"
         d="m 305.38678,50.000008 c -1.59927,0 -2.88678,1.313703 -2.88678,2.945525 V 164.55448 c 0,1.63182 1.28751,2.94552 2.88678,2.94552 h 161.72643 c 1.59927,0 2.88677,-1.3137 2.88677,-2.94552 V 52.945533 c 0,-1.631822 -1.2875,-2.945525 -2.88677,-2.945525 z"
         style="opacity:0.05;fill-rule:evenodd;stroke-width:1.04247pt" />
      <path
         id="path1226"
         d="m 304.17987,48.750008 c -1.62314,0 -2.92987,1.341654 -2.92987,3.008196 V 165.74181 c 0,1.66654 1.30673,3.00819 2.92987,3.00819 h 164.14029 c 1.62314,0 2.92986,-1.34165 2.92986,-3.00819 V 51.758204 c 0,-1.666542 -1.30672,-3.008196 -2.92986,-3.008196 z"
         style="opacity:0.05;fill-rule:evenodd;stroke-width:1.04247pt" />
    </g>
    <rect
       ry="0.51313657"
       y="32.312138"
       x="20.508604"
       height="70.339851"
       width="89.097046"
       id="rect1235"
       style="fill-rule:evenodd;stroke-width:0.866401pt"
       rx="0.51313657" />
    <rect
       y="33.111454"
       x="21.204674"
       height="68.741211"
       width="87.70491"
       id="rect1236"
       style="fill:#ffffff;fill-rule:evenodd;stroke-width:0.866401pt" />
    <g
       style="opacity:0.6;stroke-width:0.34749"
       transform="matrix(0.5568565,0,0,0.54802655,130.15321,10.89408)"
       id="g1026">
      <path
         id="path1015"
         d="m -20.917886,61.18677 c 1.369557,0 2.472137,1.102578 2.472137,2.472149 l 10e-6,125.106431 c 0,1.36957 -1.10258,2.47215 -2.472137,2.47215 H -215.97198 c -1.36957,0 -2.47215,-1.10258 -2.47215,-2.47215 l -1e-5,-105.135224 c 0,-1.369571 1.10258,-2.472149 2.47215,-2.472149 h 52.23907 c 1.80509,0 4.0049,-0.899309 4.79094,-2.524263 l 7.24268,-14.972699 c 0.86578,-1.789804 3.43904,-2.474162 5.42725,-2.474163 z"
         style="opacity:0.04;fill:#000000;fill-opacity:1;fill-rule:evenodd;stroke-width:1.04247pt" />
      <path
         id="path1020"
         d="m -20.917886,59.936768 c 1.369557,0 2.472137,1.102578 2.472137,2.472149 l 10e-6,125.106433 c 0,1.36957 -1.10258,2.47215 -2.472137,2.47215 H -215.97198 c -1.36957,0 -2.47215,-1.10258 -2.47215,-2.47215 l -1e-5,-105.135226 c 0,-1.369571 1.10258,-2.472149 2.47215,-2.472149 h 52.23907 c 1.80509,0 4.0049,-0.899309 4.79094,-2.524263 l 7.24268,-14.972699 c 0.86578,-1.789804 3.43904,-2.474162 5.42725,-2.474163 z"
         style="opacity:0.04;fill:#000000;fill-opacity:1;fill-rule:evenodd;stroke-width:1.04247pt" />
      <path
         id="path1021"
         d="m -20.917886,58.686768 c 1.369557,0 2.472137,1.102578 2.472137,2.472149 l 10e-6,125.106433 c 0,1.36957 -1.10258,2.47215 -2.472137,2.47215 H -215.97198 c -1.36957,0 -2.47215,-1.10258 -2.47215,-2.47215 l -1e-5,-105.135226 c 0,-1.369571 1.10258,-2.472149 2.47215,-2.472149 h 52.23907 c 1.80509,0 4.0049,-0.899309 4.79094,-2.524263 l 7.24268,-14.972699 c 0.86578,-1.789804 3.43904,-2.474162 5.42725,-2.474163 z"
         style="opacity:0.04;fill:#000000;fill-opacity:1;fill-rule:evenodd;stroke-width:1.04247pt" />
      <path
         id="path1022"
         d="m -20.917886,57.436766 c 1.369557,0 2.472137,1.102578 2.472137,2.472149 l 10e-6,125.106435 c 0,1.36957 -1.10258,2.47215 -2.472137,2.47215 H -215.97198 c -1.36957,0 -2.47215,-1.10258 -2.47215,-2.47215 l -1e-5,-105.135228 c 0,-1.369571 1.10258,-2.472149 2.47215,-2.472149 h 52.23907 c 1.80509,0 4.0049,-0.899309 4.79094,-2.524263 l 7.24268,-14.972699 c 0.86578,-1.789804 3.43904,-2.474162 5.42725,-2.474163 z"
         style="opacity:0.04;fill:#000000;fill-opacity:1;fill-rule:evenodd;stroke-width:1.04247pt" />
      <path
         id="path1023"
         d="m -20.917886,56.186764 c 1.369557,0 2.472137,1.102578 2.472137,2.472149 l 10e-6,125.106437 c 0,1.36957 -1.10258,2.47215 -2.472137,2.47215 H -215.97198 c -1.36957,0 -2.47215,-1.10258 -2.47215,-2.47215 l -1e-5,-105.13523 c 0,-1.369571 1.10258,-2.472149 2.47215,-2.472149 h 52.23907 c 1.80509,0 4.0049,-0.899309 4.79094,-2.524263 l 7.24268,-14.972699 c 0.86578,-1.789804 3.43904,-2.474162 5.42725,-2.474163 z"
         style="opacity:0.04;fill:#000000;fill-opacity:1;fill-rule:evenodd;stroke-width:1.04247pt" />
      <path
         id="path1024"
         d="m -20.917886,54.936764 c 1.369557,0 2.472137,1.102578 2.472137,2.472149 l 10e-6,125.106437 c 0,1.36957 -1.10258,2.47215 -2.472137,2.47215 H -215.97198 c -1.36957,0 -2.47215,-1.10258 -2.47215,-2.47215 l -1e-5,-105.13523 c 0,-1.369571 1.10258,-2.472149 2.47215,-2.472149 h 52.23907 c 1.80509,0 4.0049,-0.899309 4.79094,-2.524263 l 7.24268,-14.972699 c 0.86578,-1.789804 3.43904,-2.474162 5.42725,-2.474163 z"
         style="opacity:0.04;fill:#000000;fill-opacity:1;fill-rule:evenodd;stroke-width:1.04247pt" />
      <path
         id="path1025"
         d="m -20.917886,53.686762 c 1.369557,0 2.472137,1.102578 2.472137,2.472149 l 10e-6,125.106439 c 0,1.36957 -1.10258,2.47215 -2.472137,2.47215 H -215.97198 c -1.36957,0 -2.47215,-1.10258 -2.47215,-2.47215 l -1e-5,-105.135232 c 0,-1.369571 1.10258,-2.472149 2.47215,-2.472149 h 52.23907 c 1.80509,0 4.0049,-0.899309 4.79094,-2.524263 l 7.24268,-14.972699 c 0.86578,-1.789804 3.43904,-2.474162 5.42725,-2.474163 z"
         style="opacity:0.04;fill:#000000;fill-opacity:1;fill-rule:evenodd;stroke-width:1.04247pt" />
    </g>
    <path
       id="path981"
       d="m 124.40724,43.817694 c 0.84553,0 1.52624,0.617414 1.52624,1.384338 l -6.05155,70.056278 c 0,0.76692 -0.6807,1.38434 -1.52624,1.38434 H 10.037784 c -0.8455447,0 -1.5262499,-0.61742 -1.5262499,-1.38434 L 2.4594683,56.385375 c 0,-0.766923 0.6807053,-1.384339 1.5262496,-1.384339 H 36.236809 c 1.114417,0 2.472526,-0.503588 2.957807,-1.413519 l 4.47145,-8.384312 c 0.534511,-1.002242 2.123177,-1.385465 3.350649,-1.385465 z"
       style="fill:none;fill-rule:evenodd;stroke:#000000;stroke-width:0.612944pt;stroke-linecap:round;stroke-linejoin:round" />
    <path
       id="path980"
       d="m 124.4072,43.817703 c 0.84552,0 1.52622,0.617415 1.52622,1.384338 l -6.05153,70.056309 c 0,0.76692 -0.68071,1.38433 -1.52624,1.38433 H 10.037718 c -0.8455451,0 -1.5262503,-0.61741 -1.5262503,-1.38433 L 2.4594044,56.385392 c 0,-0.766923 0.6807052,-1.384339 1.5262496,-1.384339 H 36.23675 c 1.114417,0 2.472525,-0.503588 2.957806,-1.413519 l 4.471451,-8.384319 c 0.534511,-1.002243 2.123177,-1.385465 3.350646,-1.385466 z"
       style="fill:url(#linearGradient21962);fill-rule:evenodd;stroke-width:0.866401pt" />
    <path
       id="path1044"
       d="m 124.81505,43.960757 c 0.0436,0.129012 0.15434,0.225188 0.15434,0.367483 l -6.05217,70.04918 c 1e-5,0.76692 -0.67861,1.38243 -1.52415,1.38243 H 9.0270424 c -0.1568815,0 -0.2629147,-0.10046 -0.4051526,-0.13999 0.1912648,0.56632 0.6811377,1.01494 1.3698006,1.01495 H 118.35773 c 0.84553,0 1.52415,-0.61551 1.52414,-1.38243 l 6.05217,-70.049181 c 0,-0.62463 -0.49462,-1.068961 -1.11899,-1.242442 z"
       style="opacity:0.132979;fill-rule:evenodd;stroke-width:0.866401pt" />
    <path
       id="path1049"
       d="m 115.37752,109.48012 c 10e-6,0.76693 -1.84287,2.62588 -2.6884,2.62588 0,0 -100.374025,4.52884 -99.52848,4.52885 h 105.1971 c 0.84553,0 1.52415,-0.61551 1.52415,-1.38244 l 6.05216,-70.049202 z"
       style="opacity:0.0531915;fill-rule:evenodd;stroke-width:0.866401pt" />
    <path
       id="path1053"
       d="m 47.025793,43.820764 c -1.227471,1e-6 -2.822465,0.38019 -3.356977,1.382435 l -4.475969,8.382105 c -0.485281,0.909931 -1.837409,1.41743 -2.951825,1.41743 H 3.9831769 c -0.8455444,0 -1.5241452,0.61551 -1.5241444,1.382433 L 8.511466,115.1287 c 0,0.74109 0.1903766,1.32524 0.9961276,1.36494 C 9.372441,116.2869 9.2181993,116.08742 9.2181993,115.82867 L 3.1657658,57.528895 c -8e-7,-0.766923 0.6786,-1.382434 1.5241444,-1.382434 H 37.398601 c 1.114416,-8e-6 2.466543,-0.507507 2.951824,-1.417438 l 4.475969,-8.3821 c 0.534513,-1.002244 2.129506,-1.382434 3.356976,-1.382435 l 76.53509,-0.07673 c 1.27639,-0.0012 0.66498,-1.017045 -0.30857,-1.067003 z"
       style="fill:#ffffff;fill-rule:evenodd;stroke-width:0.866401pt" />
    <path
       id="path1056"
       d="m 48.060838,43.820764 c -1.22747,1e-6 -2.822464,0.38019 -3.356976,1.382435 l -4.475969,8.382105 c -0.485281,0.909931 -1.837408,1.41743 -2.951825,1.41743 H 5.018223 c -0.8455444,0 -2.0393962,0.61551 -2.0393962,1.382433 L 8.511466,115.25238 7.4491376,60.094995 c 0,-0.766923 0.6786,-1.382433 1.5241444,-1.382433 h 32.257845 c 1.11442,0 2.466543,-0.507507 2.951825,-1.417439 l 4.475969,-8.382101 c 0.534511,-1.002245 2.129501,-1.382434 3.356978,-1.382434 L 121.51221,46.29321 c 6.90532,-0.122949 2.94627,-2.472446 2.43209,-2.472446 z"
       style="opacity:0.111702;fill:#ffffff;fill-rule:evenodd;stroke-width:0.866401pt" />
    <g
       aria-label="XFE"
       transform="scale(1.3301921,0.7517711)"
       id="text3004"
       style="font-size:9.97325px;line-height:0%;font-family:'Bitstream Vera Sans';fill:#f1f1ed;stroke-width:0.288801px">
      <path
         d="m 21.62537,124.4215 q -0.613573,-0.99115 -1.085553,-2.1475 -0.44838,-1.17995 -0.731568,-2.57229 l -0.542776,-0.87316 -0.0472,-0.47198 q -0.401183,-0.84956 -0.660771,-1.53394 -0.23599,-0.68437 -0.353985,-1.27434 0.0236,-0.0708 0.0236,-0.14159 0.0236,-0.0708 0.0236,-0.1888 0,-0.21239 -0.0944,-0.35398 -0.0708,-0.14159 -0.283188,-0.28319 -0.141594,-0.51918 -0.377583,-1.36874 -0.23599,-0.84956 -0.306787,-1.20355 l 0.0472,-0.42478 -0.188792,-0.28319 v -0.40118 l -0.283187,-0.30678 q -0.0472,-0.56638 -0.117995,-1.03836 -0.0472,-0.47198 -0.141594,-0.87316 v -0.18879 q 0,-0.40119 0.165193,-0.87317 0.165192,-0.47197 0.519177,-1.06195 l 0.23599,-0.23599 0.0944,-0.44838 0.68437,-1.01476 0.141594,-0.47197 0.495578,-0.1888 q 0.117995,-0.23599 0.330386,-0.35398 0.212391,-0.14159 0.637172,-0.23599 l 0.0708,-0.0472 q 0.613574,-0.37758 0.825964,-0.37758 0.212391,0 0.377584,0.28319 0.188792,0.28318 0.212391,0.70796 l 0.589974,0.118 0.23599,0.51918 q 0.212391,0.42478 0.330385,0.80236 0.141594,0.35399 0.188792,0.73157 l -0.0472,0.40118 v 1.22715 q -0.0472,0.0708 -0.188792,0.28319 -0.141593,0.21239 -0.188791,0.33038 0,0.84957 0.0708,1.67553 0.09439,0.82596 0.259588,1.65193 l -0.0472,0.58997 0.23599,0.28319 -0.0472,0.44838 0.306787,0.23599 0.23599,1.20355 0.09439,0.18879 0.23599,1.27434 v 0.1888 q 0,0.23599 0.0708,0.44838 0.0944,0.18879 0.283188,0.42478 0.141594,0.56637 0.283188,1.06195 0.165192,0.47198 0.330385,0.89676 l 0.141594,0.77877 0.68437,-0.75517 q 0.188792,-0.54277 0.377584,-0.87316 0.212391,-0.35398 0.495578,-0.63717 l 0.330386,-0.56638 q 0.401183,-0.28319 0.660771,-0.63717 0.259589,-0.37758 0.448381,-0.96756 l 0.353984,-0.35398 q 0.165193,-0.61358 0.495579,-1.17995 0.330386,-0.56638 0.896761,-1.17995 l 0.283188,-0.42478 0.165192,-0.40118 0.755168,-1.15635 0.21239,-0.42479 0.519178,-1.06195 h -0.424782 q -0.306786,0.40118 -0.519177,0.54278 -0.188792,0.14159 -0.401183,0.14159 -0.0944,0 -0.165193,-0.0236 -0.0472,-0.0236 -0.0944,-0.0472 l -0.401183,-0.40118 q -0.141594,-0.18879 -0.188792,-0.25959 -0.0236,-0.0708 -0.0236,-0.14159 0,-0.14159 0.0944,-0.35399 0.117995,-0.23599 0.283188,-0.42478 l 0.401182,-0.54277 0.519178,-0.56638 1.887918,-1.69912 0.68437,-0.1888 0.23599,-0.44838 1.982314,-1.48673 q 0.259588,-0.25959 0.471979,-0.40119 0.23599,-0.14159 0.448381,-0.14159 0.306786,0 0.755167,0.70797 0.44838,0.68437 0.44838,1.39234 0,0.0472 -0.0236,0.14159 -0.0236,0.0944 -0.0236,0.1416 l -0.188791,0.37758 0.188791,0.18879 v 1.06196 q 0,0.37758 -0.117994,0.75516 -0.0944,0.35399 -0.306787,0.68437 -0.165193,0.94396 -0.519178,1.65193 -0.330385,0.68437 -0.896761,1.27435 -0.0236,0.18879 -0.165192,0.42478 -0.141594,0.21239 -0.353985,0.40118 l -0.306787,0.42478 -0.967558,1.06196 -1.156349,1.39234 q -0.23599,0.56637 -0.519178,0.94395 -0.259589,0.35399 -0.589974,0.51918 -0.542777,0.87316 -0.943959,1.41594 -0.377584,0.54278 -0.660772,0.87316 -0.21239,0.42478 -0.471979,0.82597 -0.23599,0.40118 -0.542776,0.84956 -0.23599,0.0944 -0.377584,0.25959 -0.117995,0.14159 -0.188792,0.40118 -0.23599,0.23599 -0.424781,0.49558 -0.165193,0.25959 -0.353985,0.63717 -0.471979,0.70797 -0.68437,1.06196 -0.188792,0.35398 -0.330386,0.61357 0.23599,0.77877 0.495579,1.48673 0.259588,0.68438 0.566375,1.32155 0.0472,0.35398 0.141594,0.58997 0.117995,0.23599 0.306787,0.40118 l 0.613573,1.03836 q 0.0472,0.30679 0.141594,0.51918 0.0944,0.18879 0.259588,0.30678 l 0.660772,1.29795 q 0.0472,0.33038 0.165193,0.56637 0.117994,0.21239 0.330385,0.30679 l 0.424782,0.77877 0.306786,0.73156 q 0.424782,0.61358 0.849563,1.29795 0.448381,0.68437 1.061954,1.67552 0.117995,0.1652 0.165193,0.28319 0.0472,0.0944 0.0472,0.21239 0,0.0236 -0.0472,0.0944 -0.0236,0.0708 -0.0944,0.18879 l -0.401182,0.18879 -0.873162,0.30679 q -0.330386,0 -0.613574,-0.16519 -0.283187,-0.1416 -0.542776,-0.42479 l -0.637172,0.0472 q -0.519178,-0.23599 -1.038355,-0.77876 -0.519178,-0.54278 -1.085553,-1.43954 l -0.0944,-0.58998 -0.424782,-0.14159 q -0.306786,-0.37758 -0.566375,-0.75517 -0.23599,-0.40118 -0.448381,-0.82596 -0.330385,-0.23599 -0.589974,-0.58998 -0.23599,-0.35398 -0.424781,-0.89676 -0.0708,-0.33038 -0.23599,-0.54277 -0.165193,-0.21239 -0.47198,-0.42478 -0.330385,-0.58998 -0.802365,-1.65193 -0.0944,-0.18879 -0.141594,-0.28319 l -0.283187,0.18879 -0.23599,0.28319 -0.306787,0.61357 q -0.141594,0.21239 -0.330385,0.42478 -0.188792,0.2124 -0.47198,0.49558 l -1.014756,1.69913 q 0,0.35398 -0.165193,0.66077 -0.141593,0.28319 -0.424781,0.54278 -0.353985,0.61357 -0.731568,1.22714 -0.377584,0.58998 -0.873162,1.34514 v 0.0944 q 0,0.42478 -0.755168,0.99116 -0.0944,0.0708 -0.141593,0.11799 l -0.495579,0.73157 -0.0944,0.42478 -0.637172,0.73157 -0.141594,0.37758 -1.533933,2.26551 q -0.0944,0.14159 -0.141594,0.16519 -0.0236,0.0472 -0.0708,0.0472 -0.0944,-0.0236 -0.283188,-0.28319 -0.0236,-0.0236 -0.0472,-0.0708 l -0.235989,-0.23599 q -0.0236,-0.0708 -0.0236,-0.21239 -0.0236,-0.11799 -0.0236,-0.25959 0,-0.25959 0.0708,-0.49558 0.0472,-0.23599 0.165193,-0.47198 l -0.0472,-0.82596 q -0.0236,-0.0708 -0.0236,-0.16519 -0.0236,-0.0708 -0.0236,-0.23599 0,-0.18879 0.0944,-0.37759 0.0944,-0.16519 0.283188,-0.28318 l 0.188792,-0.54278 q 0,-0.0944 -0.0236,-0.21239 -0.0236,-0.0944 -0.0236,-0.118 0,-0.18879 0.0708,-0.35398 0.0944,-0.18879 0.283187,-0.42478 l 1.345142,-2.3599 1.557532,-2.85547 0.330386,-0.47198 -0.0944,-0.2124 0.967558,-1.48673 q 0.188792,-0.28319 0.330386,-0.42478 0.165193,-0.16519 0.330385,-0.25959 0.0472,-0.44838 0.188792,-0.66077 0.141594,-0.21239 0.448381,-0.35399 0.377583,-0.68437 0.778766,-1.43953 0.424781,-0.77877 0.471979,-0.89677 z"
         style="font-size:48.3307px;line-height:125%;font-family:'Staccato222 BT'"
         id="path1114" />
      <path
         d="m 42.227276,141.60156 -1.510335,-0.54278 q -0.235989,-1.60473 -0.353984,-3.46905 -0.117995,-1.84072 -0.117995,-4.05902 v -1.20355 l 0.188792,-0.49558 -0.23599,-0.66077 0.0472,-2.10031 0.141594,-0.23599 -0.0944,-0.66077 0.141594,-0.63717 -0.188792,-0.92036 0.0472,-2.02951 -0.47198,0.18879 -0.542776,0.0944 -0.778766,0.18879 -0.283188,-0.47198 0.825964,-1.20355 0.283188,-0.82596 1.297943,-0.77877 q 0.0944,-1.93512 0.23599,-3.35105 0.141594,-1.43954 0.353985,-2.69029 l 0.141594,-0.47198 -0.0944,-1.27434 q 0.495578,-2.2419 0.68437,-3.13867 0.212391,-0.92036 0.330386,-1.39234 l 0.731568,-1.01475 q 0.613573,-1.22715 1.982314,-2.4307 1.36874,-1.22714 3.327455,-2.2655 l 0.377584,0.0472 0.401182,-0.18879 1.345142,-0.28319 0.495578,0.1416 0.424782,-0.23599 1.061954,-0.1416 0.377583,0.23599 0.448381,-0.28319 2.855476,-0.0472 0.873162,1.06195 -0.0472,1.81712 -0.0708,0.35399 v 0.61357 q -0.212391,0.56637 -0.448381,1.01475 -0.21239,0.44839 -0.44838,0.82597 l -0.637172,-0.51918 -1.510335,-0.35398 -0.471979,-0.28319 -0.377584,0.23599 -1.935116,0.0944 -0.141594,-0.14159 -0.306786,0.18879 q -1.439538,0.25959 -2.123908,0.63717 -0.660771,0.37759 -0.967558,1.06196 l -0.778766,1.55753 -0.141594,0.33039 -0.0944,0.47198 -0.566375,3.58704 -0.495579,2.71388 -0.519177,0.87316 0.283188,0.37759 -0.0944,0.73157 1.887918,-0.63718 0.330385,0.0472 0.424782,-0.42478 1.651928,-0.25959 0.68437,-0.23599 1.887918,-0.42478 0.92036,0.14159 0.613574,-0.33038 q 1.864319,0 2.831877,0.35398 0.991156,0.33039 0.991156,0.99116 0,0.16519 -0.0236,0.23599 0,0.0472 -0.0236,0.0944 l -0.0472,1.51033 -0.0944,0.96756 -0.495579,0.75517 -0.707969,-0.23599 -2.619486,-0.28319 -0.495579,-0.23599 -0.566375,0.23599 h -0.542776 q -1.132751,0 -2.005913,0.16519 -0.873162,0.14159 -1.651929,0.47198 l -0.778766,-0.16519 -0.283187,0.44838 -0.589975,0.23599 q -0.188792,-0.0472 -0.377583,-0.0708 -0.165193,-0.0236 -0.401183,-0.0236 -0.44838,0 -0.778766,0.25959 -0.330386,0.23599 -0.519178,0.70797 l -0.141593,1.43954 -0.448381,0.82596 0.212391,0.63717 -0.165193,2.3599 -0.283188,0.87316 0.0944,0.63718 -0.377583,4.4366 -0.0944,0.54278 0.141594,0.37758 -0.0472,2.21831 -0.141594,0.28318 0.188792,0.35399 -0.0472,0.92036 z"
         style="font-size:48.3307px;line-height:125%;font-family:'Staccato222 BT'"
         id="path1116" />
      <path
         d="m 64.835094,136.43338 -0.47198,-0.0472 -0.353985,0.1416 -0.660771,-0.68437 0.0944,-4.43661 0.377584,-0.96756 -0.330386,-0.54277 0.0472,-0.87317 0.23599,-2.94987 0.542776,-4.4366 0.141594,-0.42479 -0.188792,-0.49557 0.377584,-1.20355 -0.0944,-0.54278 0.613573,-2.69028 0.117995,-0.40118 -0.212391,-0.51918 q 0.306787,-0.58998 0.448381,-1.08555 0.141594,-0.49558 0.141594,-0.89677 0,-0.21239 -0.0236,-0.30678 0,-0.0944 -0.0236,-0.18879 l 0.471979,-0.70797 -0.141594,-0.54278 0.731569,-1.88792 0.519177,-0.37758 0.353985,-0.82597 0.283187,-0.18879 0.330386,-0.68437 1.793522,-1.53393 0.92036,-0.77877 0.495579,-0.68437 0.802365,-0.14159 0.542776,-0.68437 q 0.849563,-0.66077 3.303857,-1.13275 0.660771,-0.1416 0.991156,-0.21239 l 0.283188,0.28319 1.179949,-0.37759 h 1.439537 l 1.84072,0.18879 0.967558,0.49558 q 0.259589,0.18879 0.353985,0.42478 0.117995,0.23599 0.117995,0.68437 0,0.1652 -0.0708,0.80237 -0.0472,0.61357 -0.0708,1.08555 l -0.23599,0.80237 -0.0472,0.44838 -0.44838,0.56637 -0.566376,-0.18879 -0.637172,0.0944 -0.566375,-0.56638 h -0.330386 q -0.141594,-0.0236 -0.448381,-0.0708 -1.250745,-0.21239 -1.746324,-0.23599 -0.0472,0 -0.589974,0.0472 -0.519177,0.0472 -0.896761,0.0708 l -1.651928,0.23599 -0.283188,-0.18879 -0.495578,0.56637 -0.519178,-0.18879 -0.825964,0.0944 -0.873162,0.49558 -0.778766,1.98231 -0.377584,0.47198 0.0472,0.77876 -0.778766,3.04427 -0.283188,0.66077 v 0.68437 l -0.330385,1.01476 -0.212391,0.28319 v 0.54277 l -0.755167,3.09147 1.250745,-0.18879 1.203548,-1.20355 0.637172,-0.14159 0.47198,-0.44838 0.731568,-0.0472 0.566375,-0.33039 q 0.849564,-0.25959 1.557533,-0.37758 0.731568,-0.118 1.439537,-0.118 l 0.589975,-0.28318 h 1.203547 l 0.353985,0.14159 0.660771,-0.14159 1.510335,0.37758 0.660771,1.32154 -0.0944,0.92036 -0.330386,0.28319 0.0944,0.33039 q -0.117995,0.77876 -0.330385,1.08555 -0.188792,0.28319 -0.589975,0.28319 -0.212391,-0.0236 -0.471979,-0.0708 -0.23599,-0.0708 -0.684371,-0.23599 l -0.68437,-0.33039 -0.896761,0.51918 q -0.23599,-0.0236 -0.44838,-0.0236 -0.212391,-0.0236 -0.684371,-0.0236 -0.589974,0 -1.109151,0.0472 -0.519178,0.0472 -1.014756,0.16519 l -0.47198,-0.30678 -0.660771,0.51917 q -0.589974,0.0472 -1.179949,0.1652 -0.589974,0.11799 -1.132751,0.28319 l -0.519177,-0.1416 -0.660771,0.44838 -1.463137,0.56638 -0.424781,2.2655 -0.141594,0.30679 0.188792,0.33038 -0.401183,1.88792 -0.23599,0.56637 0.23599,0.40119 -0.330386,2.90267 -0.188791,1.76992 0.825964,-0.23599 2.902674,-0.0472 0.566375,0.14159 1.297944,-0.33039 0.92036,0.0944 0.306786,-0.28319 2.123908,-0.49558 H 76.1862 l 2.99707,-0.96755 q 0.424782,-0.1888 0.731568,-0.44838 0.330386,-0.25959 0.589975,-0.61358 l 0.377583,-0.14159 0.637173,0.40118 0.09439,0.70797 -0.401182,0.54278 -0.283188,0.77876 -0.778766,0.70797 h -0.424781 l -0.23599,0.54278 -2.383497,1.20355 -0.424781,-0.0472 -0.731568,0.63717 -1.581132,0.56638 -0.401182,-0.0472 -0.684371,0.58997 q -1.250745,0.40119 -2.241902,0.61358 -0.991157,0.23599 -1.817121,0.28318 l -0.283188,-0.14159 -1.061954,0.35398 h -0.825964 q -0.778766,0 -1.415938,-0.14159 -0.613574,-0.14159 -1.179949,-0.44838 l 0.141594,-0.51918 z"
         style="font-size:48.3307px;line-height:125%;font-family:'Staccato222 BT'"
         id="path1118" />
    </g>
  </g>
</svg>
