<?xml version="1.0" encoding="UTF-8" standalone="no"?>
<!-- Generator: Adobe Illustrator 9.0, SVG Export Plug-In  -->

<svg
   width="128"
   height="128"
   viewBox="0 0 116.8 104"
   xml:space="preserve"
   id="svg20954"
   version="1.0"
   xmlns:xlink="http://www.w3.org/1999/xlink"
   xmlns="http://www.w3.org/2000/svg"
   xmlns:svg="http://www.w3.org/2000/svg"
   xmlns:rdf="http://www.w3.org/1999/02/22-rdf-syntax-ns#"
   xmlns:cc="http://creativecommons.org/ns#"
   xmlns:dc="http://purl.org/dc/elements/1.1/"><metadata
   id="metadata21022"><rdf:RDF><cc:Work
       rdf:about=""><dc:format>image/svg+xml</dc:format><dc:type
         rdf:resource="http://purl.org/dc/dcmitype/StillImage" /></cc:Work></rdf:RDF></metadata><defs
   id="defs21020">
		
		<linearGradient
   y2="36.032799"
   x2="31.081301"
   y1="3.7319"
   x1="12.4873"
   gradientUnits="userSpaceOnUse"
   id="aigrd1">
			<stop
   id="stop20963"
   style="stop-color:#D2D2D2"
   offset="0" />
			<stop
   id="stop20965"
   style="stop-color:#EDEDED"
   offset="1" />
		</linearGradient>
		
		<linearGradient
   y2="22.5769"
   x2="21.9168"
   y1="30.341299"
   x1="21.877001"
   gradientUnits="userSpaceOnUse"
   id="aigrd2"
   gradientTransform="translate(-0.412698,-2.269841)">
			<stop
   id="stop20970"
   style="stop-color:#163069"
   offset="0" />
			<stop
   id="stop20972"
   style="stop-color:#83A1CB"
   offset="1" />
		</linearGradient>
		
		
		
		
		
		<linearGradient
   y2="7.1090999"
   x2="21.9326"
   y1="24.627399"
   x1="21.9326"
   gradientUnits="userSpaceOnUse"
   id="aigrd3"
   gradientTransform="translate(-0.412698,-2.269841)">
			<stop
   id="stop20985"
   style="stop-color:#D0D6E5"
   offset="0" />
			<stop
   id="stop20987"
   style="stop-color:#093A80"
   offset="1" />
		</linearGradient>
		
		
		
		
		
		
		
	<linearGradient
   xlink:href="#aigrd1"
   id="linearGradient22339"
   gradientUnits="userSpaceOnUse"
   x1="12.4873"
   y1="3.7319"
   x2="31.081301"
   y2="36.032799"
   gradientTransform="matrix(2.7950406,0,0,2.7950406,-1.412202,-1.412203)" /><linearGradient
   xlink:href="#aigrd2"
   id="linearGradient22341"
   gradientUnits="userSpaceOnUse"
   gradientTransform="matrix(2.7950406,0,0,2.7950406,-2.5657097,-7.7565008)"
   x1="21.877001"
   y1="30.341299"
   x2="21.9168"
   y2="22.5769" /><linearGradient
   xlink:href="#aigrd3"
   id="linearGradient22343"
   gradientUnits="userSpaceOnUse"
   gradientTransform="matrix(2.7950406,0,0,2.7950406,-2.5657097,-7.7565008)"
   x1="21.9326"
   y1="24.627399"
   x2="21.9326"
   y2="7.1090999" />

</defs>
	
	
<g
   id="g1636"><g
     style="fill-rule:nonzero;stroke:#000000;stroke-width:0.386352;stroke-miterlimit:4"
     id="Layer_x0020_2"
     transform="matrix(2.7950406,0,0,2.7950406,-1.412202,-1.412203)">
		<path
   id="path20957"
   d="M 43.8,39 H 0 V 0 h 43.8 z"
   style="fill:none;stroke:none;stroke-width:0.386352" />
	</g><path
     style="fill-rule:nonzero;stroke:none;stroke-width:1.07987;stroke-miterlimit:4"
     d="m 17.187851,2.2745886 c -6.457482,0 -11.8387167,5.1121731 -11.8387167,11.5696554 v 78.027904 c 0,6.457481 5.1121727,11.569652 11.5696547,11.569652 h 83.140081 c 6.45748,0 11.56965,-5.112171 11.56965,-11.569652 V 13.844244 c 0,-6.4574823 -5.11217,-11.5696554 -11.56965,-11.5696554 z"
     id="path20960" /><path
     style="fill:url(#linearGradient22339);fill-rule:nonzero;stroke:none;stroke-width:1.07987;stroke-miterlimit:4"
     d="m 107.87389,91.662649 c 0,4.472065 -3.63356,8.105618 -8.105622,8.105618 h -81.89469 c -4.472065,0 -8.1056176,-3.633553 -8.1056176,-8.105618 V 14.519528 c 0,-4.472065 3.6335526,-8.1056173 8.1056176,-8.1056173 h 81.89469 c 4.472062,0 8.105622,3.6335523 8.105622,8.1056173 z"
     id="path20967" /><path
     style="fill:url(#linearGradient22341);fill-rule:nonzero;stroke:none;stroke-width:1.07987;stroke-miterlimit:4"
     d="M 99.732776,74.976701 H 17.838086 V 19.355393 h 81.89469 z"
     id="path20974" /><path
     style="fill:#fcfcfc;fill-rule:nonzero;stroke:none;stroke-width:1.07987;stroke-miterlimit:4"
     d="M 13.122009,16.773307 11.444985,97.270476 C 10.326969,95.872956 9.7679604,93.357419 9.7679604,93.357419 V 13.978267 c 0,0 0,-1.956529 1.6770246,-4.4720654 1.956528,-2.5155365 5.031073,-2.5155365 5.031073,-2.5155365 H 87.749593 L 19.271098,10.344714 c -2.79504,0 -4.19256,1.39752 -4.751569,1.956528 -0.559008,0.838512 -1.39752,2.515537 -1.39752,4.472065 z"
     id="path20976" /><path
     style="fill:#bebebe;fill-rule:nonzero;stroke:none;stroke-width:1.07987;stroke-miterlimit:4"
     d="m 104.51984,89.706121 1.95653,-79.9381616 c 1.11801,1.1180166 1.67702,3.9130566 1.67702,3.9130566 v 79.099649 c 0,0 0,1.956529 -1.67702,4.472065 -1.95653,2.515537 -5.31058,2.79504 -5.31058,2.79504 H 30.451261 l 68.478495,-3.913056 c 2.795044,0 4.192564,-1.39752 4.751564,-1.956528 0.55901,-0.559009 1.39752,-2.515537 1.39752,-4.192561 z"
     id="path20978" /><path
     style="fill:#bebebe;fill-rule:nonzero;stroke:none;stroke-width:1.07987;stroke-miterlimit:4"
     d="M 99.732776,19.355393 101.4098,17.398864 15.881557,17.11936 v 59.813869 l 1.956529,-2.236032 V 19.355393 Z"
     id="path20980" /><path
     style="fill:#ffffff;fill-rule:nonzero;stroke:none;stroke-width:1.07987;stroke-miterlimit:4"
     d="M 15.881557,76.933229 101.4098,76.653725 V 17.398864 l -1.956528,1.956529 V 74.976701 H 17.838086 l -1.956529,2.236032 z"
     id="path20982" /><path
     style="fill:url(#linearGradient22343);fill-rule:nonzero;stroke:none;stroke-width:1.07987;stroke-miterlimit:4"
     d="M 18.676598,19.914401 H 98.894264 V 53.734392 H 18.676598 Z"
     id="path20989" /><g
     transform="matrix(2.7950406,0,0,2.7950406,-2.5657097,-7.7565008)"
     id="g20991"
     style="fill-rule:nonzero;stroke:#000000;stroke-width:0.386352;stroke-miterlimit:4">
			<g
   id="g20993"
   style="stroke-width:0.386352">
				<path
   d="m 18.4,15.4 c 0,2.2 -1.8,4.1 -4.1,4.1 -2.2,0 -4.1,-1.8 -4.1,-4.1 0,-2.2 1.8,-4.1 4.1,-4.1 2.2,0 4.1,1.8 4.1,4.1 z"
   id="path20995"
   style="stroke-width:0.386352" />
				<path
   style="opacity:0.2083;fill:#ecf751;stroke:none;stroke-width:0.386352"
   d="m 18,15.4 c 0,2 -1.6,3.7 -3.7,3.7 -2,0 -3.7,-1.6 -3.7,-3.7 0,-2 1.6,-3.7 3.7,-3.7 2,0 3.7,1.6 3.7,3.7 z"
   id="path20997" />
				<path
   style="opacity:0.3667;fill:#f0f972;stroke:none;stroke-width:0.386352"
   d="m 17.6,15.4 c 0,1.8 -1.5,3.3 -3.3,3.3 -1.8,0 -3.3,-1.5 -3.3,-3.3 0,-1.8 1.5,-3.3 3.3,-3.3 1.8,0 3.3,1.5 3.3,3.3 z"
   id="path20999" />
				<path
   style="opacity:0.525;fill:#f4fa95;stroke:none;stroke-width:0.386352"
   d="m 17.2,15.4 c 0,1.6 -1.3,2.9 -2.9,2.9 -1.6,0 -2.9,-1.3 -2.9,-2.9 0,-1.6 1.3,-2.9 2.9,-2.9 1.6,0 2.9,1.3 2.9,2.9 z"
   id="path21001" />
				<path
   style="opacity:0.6833;fill:#f7fcb7;stroke:none;stroke-width:0.386352"
   d="m 16.8,15.4 c 0,1.4 -1.1,2.5 -2.5,2.5 -1.4,0 -2.5,-1.1 -2.5,-2.5 0,-1.4 1.1,-2.5 2.5,-2.5 1.4,0 2.5,1.1 2.5,2.5 z"
   id="path21003" />
				<path
   style="opacity:0.8417;fill:#fbfddb;stroke:none;stroke-width:0.386352"
   d="m 16.4,15.4 c 0,1.2 -1,2.1 -2.1,2.1 -1.1,0 -2.1,-1 -2.1,-2.1 0,-1.1 1,-2.1 2.1,-2.1 1.1,0 2.1,1 2.1,2.1 z"
   id="path21005" />
				<path
   style="fill:#ffffff;stroke:none;stroke-width:0.386352"
   d="m 16,15.4 c 0,1 -0.8,1.8 -1.8,1.8 -1,0 -1.8,-0.8 -1.8,-1.8 0,-1 0.8,-1.8 1.8,-1.8 1,0 1.8,0.8 1.8,1.8 z"
   id="path21007" />
			</g>
		</g><path
     style="opacity:0.3;fill-rule:nonzero;stroke:none;stroke-width:1.07987;stroke-miterlimit:4"
     d="m 64.515265,58.485961 h 20.403796 l 3.913057,1.118017 h -6.708097 c 0,0 6.708097,0.559008 10.062146,4.751569 3.354048,3.913057 -3.913057,8.664626 -3.913057,8.664626 0,0 0,0 0,0 -0.279504,-0.838513 -1.956529,-7.54661 -5.310577,-10.341651 -2.515537,-2.236032 -5.310577,-2.79504 -5.310577,-2.79504 H 64.515265 v -1.118016 z"
     id="path21009" /><path
     style="opacity:0.3;fill-rule:nonzero;stroke:none;stroke-width:1.07987;stroke-miterlimit:4"
     d="M 77.93146,60.162986 H 66.192289 l 21.801317,12.298178 z"
     id="path21011" /><path
     style="fill:#515151;fill-rule:nonzero;stroke:none;stroke-width:1.07987;stroke-miterlimit:4"
     d="m 64.515265,58.765466 h 20.403796 l 3.074545,-1.956529 h -6.708098 c 0,0 6.14909,-1.118016 6.987602,-8.105618 0.838512,-6.987601 -9.503138,-14.813715 -9.503138,-14.813715 0,0 0,0 0,0.279504 0.279504,1.677025 3.074544,13.416195 1.118016,17.88826 -0.838512,3.913057 -3.354049,4.751569 -3.354049,4.751569 H 63.676753 l 0.559008,1.956529 z"
     id="path21013" /><path
     style="fill:#515151;fill-rule:nonzero;stroke:none;stroke-width:1.07987;stroke-miterlimit:4"
     d="M 76.813443,55.690921 H 65.074273 L 79.049476,34.448612 Z"
     id="path21015" /><path
     style="fill-rule:nonzero;stroke:none;stroke-width:1.07987;stroke-miterlimit:4"
     d="m 17.838086,19.355393 v 55.621308 h 81.89469 V 19.355393 Z M 98.055752,73.299677 H 19.794614 v -52.26726 h 78.261138 z"
     id="path21017" /><g
     aria-label="XFI"
     transform="scale(1.3317422,0.75089609)"
     id="text3004"
     style="font-size:33.5405px;line-height:0%;font-family:'Bitstream Vera Sans';fill:#000004;stroke-width:1.07987px"><path
       d="m 27.71473,119.7475 q -0.405124,-0.65443 -0.716758,-1.41793 -0.296052,-0.77909 -0.483032,-1.69841 l -0.358379,-0.57652 -0.03116,-0.31163 q -0.264888,-0.56095 -0.436287,-1.01281 -0.155817,-0.45187 -0.233725,-0.84142 0.01558,-0.0467 0.01558,-0.0935 0.01558,-0.0467 0.01558,-0.12465 0,-0.14023 -0.06233,-0.23372 -0.04674,-0.0935 -0.18698,-0.18699 -0.09349,-0.34279 -0.249307,-0.90373 -0.155817,-0.56094 -0.202562,-0.79467 l 0.03116,-0.28047 -0.124654,-0.18698 v -0.26489 l -0.18698,-0.20256 q -0.03116,-0.37396 -0.07791,-0.6856 -0.03116,-0.31163 -0.09349,-0.57652 v -0.12465 q 0,-0.26489 0.109072,-0.57652 0.109072,-0.31164 0.342797,-0.70118 l 0.155817,-0.15582 0.06233,-0.29605 0.451869,-0.67001 0.09349,-0.31164 0.327215,-0.12465 q 0.07791,-0.15582 0.218144,-0.23372 0.140235,-0.0935 0.420706,-0.15582 l 0.04675,-0.0312 q 0.405124,-0.24931 0.545359,-0.24931 0.140235,0 0.249307,0.18698 0.124654,0.18698 0.140235,0.46745 l 0.389542,0.0779 0.155817,0.3428 q 0.140236,0.28047 0.218144,0.52977 0.09349,0.23373 0.124654,0.48304 l -0.03116,0.26488 v 0.81025 q -0.03116,0.0467 -0.124653,0.18698 -0.09349,0.14024 -0.124654,0.21815 0,0.56094 0.04674,1.1063 0.06233,0.54535 0.171399,1.09071 l -0.03116,0.38955 0.155817,0.18698 -0.03116,0.29605 0.202562,0.15582 0.155817,0.79466 0.06233,0.12466 0.155816,0.84141 v 0.12465 q 0,0.15582 0.04675,0.29605 0.06233,0.12466 0.186981,0.28047 0.09349,0.37396 0.18698,0.70118 0.109072,0.31163 0.218144,0.5921 l 0.09349,0.5142 0.451869,-0.49862 q 0.124653,-0.35837 0.249307,-0.57652 0.140235,-0.23372 0.327215,-0.4207 l 0.218144,-0.37396 q 0.264889,-0.18698 0.436287,-0.42071 0.171399,-0.24931 0.296052,-0.63885 l 0.233726,-0.23372 q 0.109072,-0.40513 0.327215,-0.77909 0.218144,-0.37396 0.592104,-0.77908 l 0.186981,-0.28047 0.109072,-0.26489 0.498614,-0.76351 0.140235,-0.28047 0.342797,-0.70117 h -0.28047 q -0.202562,0.26489 -0.342798,0.35838 -0.124653,0.0935 -0.264888,0.0935 -0.06233,0 -0.109072,-0.0156 -0.03116,-0.0156 -0.06233,-0.0312 l -0.264889,-0.26489 q -0.09349,-0.12465 -0.124653,-0.1714 -0.01558,-0.0467 -0.01558,-0.0935 0,-0.0935 0.06233,-0.23372 0.07791,-0.15582 0.18698,-0.28047 l 0.264889,-0.35838 0.342797,-0.37396 1.246535,-1.12188 0.451869,-0.12466 0.155817,-0.29605 1.308862,-0.98164 q 0.171399,-0.1714 0.311634,-0.26489 0.155817,-0.0935 0.296052,-0.0935 0.202562,0 0.498614,0.46745 0.296052,0.45187 0.296052,0.91932 0,0.0312 -0.01558,0.0935 -0.01558,0.0623 -0.01558,0.0935 l -0.124654,0.2493 0.124654,0.12466 v 0.70117 q 0,0.24931 -0.07791,0.49862 -0.06233,0.23372 -0.202562,0.45187 -0.109071,0.62326 -0.342797,1.09072 -0.218143,0.45186 -0.592104,0.84141 -0.01558,0.12465 -0.109072,0.28047 -0.09349,0.14023 -0.233725,0.26489 l -0.202562,0.28047 -0.638849,0.70117 -0.763503,0.91932 q -0.155817,0.37396 -0.342797,0.62327 -0.171399,0.23372 -0.389543,0.3428 -0.358378,0.57652 -0.623267,0.9349 -0.249307,0.35838 -0.436287,0.57652 -0.140236,0.28047 -0.311634,0.54536 -0.155817,0.26489 -0.358379,0.56094 -0.155817,0.0623 -0.249307,0.1714 -0.07791,0.0935 -0.124654,0.26489 -0.155817,0.15581 -0.28047,0.32721 -0.109072,0.1714 -0.233725,0.42071 -0.311634,0.46745 -0.451869,0.70117 -0.124654,0.23373 -0.218144,0.40513 0.155817,0.51419 0.327215,0.98165 0.171399,0.45186 0.373961,0.87257 0.03116,0.23373 0.09349,0.38954 0.07791,0.15582 0.202562,0.26489 l 0.405124,0.6856 q 0.03116,0.20256 0.09349,0.34279 0.06233,0.12466 0.171399,0.20256 l 0.436287,0.857 q 0.03116,0.21814 0.109072,0.37396 0.07791,0.14023 0.218143,0.20256 l 0.280471,0.5142 0.202562,0.48303 q 0.28047,0.40512 0.560941,0.85699 0.296052,0.45187 0.701176,1.1063 0.07791,0.10907 0.109072,0.18698 0.03116,0.0623 0.03116,0.14024 0,0.0156 -0.03116,0.0623 -0.01558,0.0468 -0.06233,0.12466 l -0.264889,0.12465 -0.576522,0.20256 q -0.218144,0 -0.405124,-0.10907 -0.186981,-0.0935 -0.358379,-0.28047 l -0.420706,0.0312 q -0.342797,-0.15581 -0.685594,-0.51419 -0.342797,-0.35838 -0.716758,-0.95049 l -0.06233,-0.38954 -0.28047,-0.0935 q -0.202562,-0.2493 -0.373961,-0.49861 -0.155817,-0.26489 -0.296052,-0.54536 -0.218143,-0.15582 -0.389542,-0.38954 -0.155817,-0.23373 -0.28047,-0.59211 -0.04675,-0.21814 -0.155817,-0.35838 -0.109072,-0.14023 -0.311634,-0.28047 -0.218144,-0.38954 -0.529778,-1.09072 -0.06233,-0.12465 -0.09349,-0.18698 l -0.18698,0.12466 -0.155817,0.18698 -0.202562,0.40512 q -0.09349,0.14024 -0.218144,0.28047 -0.124653,0.14024 -0.311633,0.32722 l -0.670013,1.12188 q 0,0.23373 -0.109072,0.43629 -0.09349,0.18698 -0.28047,0.35838 -0.233726,0.40512 -0.483033,0.81024 -0.249307,0.38955 -0.576522,0.88816 v 0.0623 q 0,0.28047 -0.498614,0.65443 -0.06233,0.0467 -0.09349,0.0779 l -0.327216,0.48303 -0.06233,0.28047 -0.420705,0.48303 -0.09349,0.24931 -1.01281,1.49584 q -0.06233,0.0935 -0.09349,0.10907 -0.01558,0.0312 -0.04675,0.0312 -0.06233,-0.0156 -0.186981,-0.18698 -0.01558,-0.0156 -0.03116,-0.0468 l -0.155817,-0.15582 q -0.01558,-0.0467 -0.01558,-0.14023 -0.01558,-0.0779 -0.01558,-0.1714 0,-0.1714 0.04675,-0.32722 0.03116,-0.15581 0.109072,-0.31163 l -0.03116,-0.54536 q -0.01558,-0.0467 -0.01558,-0.10907 -0.01558,-0.0468 -0.01558,-0.15582 0,-0.12465 0.06233,-0.2493 0.06233,-0.10908 0.18698,-0.18698 l 0.124653,-0.35838 q 0,-0.0623 -0.01558,-0.14024 -0.01558,-0.0623 -0.01558,-0.0779 0,-0.12465 0.04675,-0.23372 0.06233,-0.12466 0.18698,-0.28047 l 0.888157,-1.55817 1.028391,-1.88539 0.218144,-0.31163 -0.06233,-0.14024 0.638849,-0.98164 q 0.124654,-0.18698 0.218144,-0.28047 0.109072,-0.10907 0.218144,-0.1714 0.03116,-0.29605 0.124653,-0.43629 0.09349,-0.14023 0.296052,-0.23372 0.249307,-0.45187 0.514196,-0.95049 0.28047,-0.51419 0.311634,-0.5921 z"
       style="font-size:31.9113px;line-height:125%;font-family:'Staccato222 BT'"
       id="path1583" /><path
       d="m 41.317545,131.09097 -0.997228,-0.35838 q -0.155817,-1.05955 -0.233726,-2.29051 -0.07791,-1.21537 -0.07791,-2.68005 v -0.79466 l 0.124653,-0.32722 -0.155817,-0.43629 0.03116,-1.38677 0.09349,-0.15581 -0.06233,-0.43629 0.09349,-0.42071 -0.124653,-0.60768 0.03116,-1.34003 -0.311634,0.12465 -0.358378,0.0623 -0.514196,0.12465 -0.18698,-0.31163 0.545359,-0.79466 0.18698,-0.54536 0.856993,-0.5142 q 0.06233,-1.2777 0.155817,-2.2126 0.09349,-0.95048 0.233725,-1.77631 l 0.09349,-0.31164 -0.06233,-0.84141 q 0.327216,-1.48026 0.451869,-2.07236 0.140236,-0.60769 0.218144,-0.91932 l 0.483033,-0.67001 q 0.405123,-0.81025 1.308861,-1.60492 0.903738,-0.81025 2.197019,-1.49584 l 0.249307,0.0312 0.264888,-0.12465 0.888157,-0.18698 0.327215,0.0935 0.280471,-0.15582 0.701176,-0.0935 0.249307,0.15582 0.296052,-0.18698 1.885384,-0.0312 0.576523,0.70117 -0.03116,1.19979 -0.04675,0.23373 v 0.40512 q -0.140235,0.37396 -0.296052,0.67001 -0.140235,0.29606 -0.296052,0.54536 l -0.420705,-0.34279 -0.997229,-0.23373 -0.311633,-0.18698 -0.249307,0.15582 -1.277699,0.0623 -0.09349,-0.0935 -0.202562,0.12466 q -0.950483,0.1714 -1.402352,0.4207 -0.436287,0.24931 -0.638849,0.70118 l -0.514196,1.02839 -0.09349,0.21814 -0.06233,0.31164 -0.373961,2.36841 -0.327215,1.7919 -0.342797,0.57652 0.18698,0.24931 -0.06233,0.48303 1.246535,-0.42071 0.218144,0.0312 0.28047,-0.28047 1.090719,-0.1714 0.451869,-0.15582 1.246535,-0.28047 0.607686,0.0935 0.405124,-0.21814 q 1.230953,0 1.869803,0.23372 0.654431,0.21815 0.654431,0.65443 0,0.10908 -0.01558,0.15582 0,0.0312 -0.01558,0.0623 l -0.03116,0.99723 -0.06233,0.63885 -0.327215,0.49861 -0.467451,-0.15582 -1.729568,-0.18698 -0.327215,-0.15581 -0.373961,0.15581 h -0.358379 q -0.747921,0 -1.324443,0.10907 -0.576523,0.0935 -1.090719,0.31164 l -0.514195,-0.10907 -0.186981,0.29605 -0.389542,0.15582 q -0.124653,-0.0312 -0.249307,-0.0468 -0.109072,-0.0156 -0.264889,-0.0156 -0.296052,0 -0.514195,0.1714 -0.218144,0.15581 -0.342798,0.46745 l -0.09349,0.95048 -0.296052,0.54536 0.140235,0.42071 -0.109071,1.55816 -0.186981,0.57653 0.06233,0.4207 -0.249307,2.92936 -0.06233,0.35838 0.09349,0.24931 -0.03116,1.46468 -0.09349,0.18698 0.124653,0.23372 -0.03116,0.60769 z"
       style="font-size:31.9113px;line-height:125%;font-family:'Staccato222 BT'"
       id="path1585" /><path
       d="m 57.429012,128.44208 q -0.327215,0.20256 -0.576523,0.28047 -0.233725,0.0935 -0.451869,0.0935 -0.171398,0 -0.358378,-0.28047 -0.171399,-0.26489 -0.327216,-0.40512 l -0.171398,-0.74792 0.03116,-0.70118 -0.218144,-0.49861 v -0.90374 -1.18421 -0.28047 q 0,-0.52978 0.06233,-0.90374 0.07791,-0.37396 0.218144,-0.68559 l -0.155817,-0.45187 q 0.202562,-1.93213 0.296052,-2.88261 0.09349,-0.96607 0.18698,-1.7919 l 0.124654,-0.91932 0.124653,-0.15581 q -0.06233,-0.5142 -0.109072,-0.93491 -0.03116,-0.4207 -0.04675,-0.81024 l -0.420705,-0.0779 q -0.04675,-0.26489 -0.07791,-0.45187 -0.01558,-0.20256 -0.01558,-0.3428 0,-0.0935 0.07791,-0.48303 0.03116,-0.1714 0.04675,-0.26489 l 0.155817,-0.42071 -0.06233,-0.48303 0.358379,-1.49584 0.249307,-0.35838 0.04675,-0.71676 q 0.07791,-0.21814 0.233726,-0.65443 0.794666,-2.24376 1.963292,-2.52423 l 0.249307,0.0623 0.249307,-0.21815 q 0.342798,-0.0935 0.607686,-0.14023 0.264889,-0.0468 0.451869,-0.0468 0.155817,0 0.233726,0.18698 0.07791,0.18698 0.07791,0.57652 -0.249307,2.68006 -0.529777,3.95775 -0.264889,1.2777 -0.701176,2.07237 l 0.09349,0.3428 -0.264889,1.1842 -0.28047,1.34003 0.03116,0.45187 -0.18698,0.73234 0.03116,0.54536 -0.202562,0.60768 v 0.43629 l -0.155817,0.9349 -0.18698,2.13469 0.03116,0.54536 q -0.155816,0.6856 -0.218143,1.52701 -0.06233,0.84141 -0.06233,2.13469 0,0.23372 0.03116,0.54536 0.03116,0.31163 0.124654,0.81025 v 0.31163 l 0.249307,0.37396 q -0.06233,0.31163 -0.249307,0.54536 -0.18698,0.23373 -0.607686,0.48303 z"
       style="font-size:31.9113px;line-height:125%;font-family:'Staccato222 BT'"
       id="path1587" /></g></g></svg>
