<?xml version="1.0" encoding="UTF-8" standalone="no"?>
<!-- Generator: Adobe Illustrator 9.0, SVG Export Plug-In  -->

<svg
   width="128"
   height="128"
   viewBox="0 0 138.66667 128"
   xml:space="preserve"
   id="svg2183"
   version="1.0"
   xmlns:xlink="http://www.w3.org/1999/xlink"
   xmlns="http://www.w3.org/2000/svg"
   xmlns:svg="http://www.w3.org/2000/svg"
   xmlns:rdf="http://www.w3.org/1999/02/22-rdf-syntax-ns#"
   xmlns:cc="http://creativecommons.org/ns#"
   xmlns:dc="http://purl.org/dc/elements/1.1/"><metadata
   id="metadata2271"><rdf:RDF><cc:Work
       rdf:about=""><dc:format>image/svg+xml</dc:format><dc:type
         rdf:resource="http://purl.org/dc/dcmitype/StillImage" /></cc:Work></rdf:RDF></metadata><defs
   id="defs2269"><radialGradient
   id="radialGradient189"
   cx="218.9404"
   cy="219.7715"
   r="150.7063"
   fx="218.9404"
   fy="219.7715"
   gradientUnits="userSpaceOnUse"
   style="stroke:#000000;stroke-width:0.981612;stroke-opacity:0.986014"><stop
     offset="0.000000"
     style="stop-color:#3e9ea6;stop-opacity:1;"
     id="stop190" /><stop
     offset="1.000000"
     style="stop-color:#c7edf7;stop-opacity:1;"
     id="stop191" /></radialGradient><linearGradient
   id="linearGradient843"><stop
     style="stop-color:white;stop-opacity:1;"
     offset="0"
     id="stop844" /><stop
     id="stop6325"
     offset="1"
     style="stop-color:#adaead;stop-opacity:1;" /><stop
     style="stop-color:#5c5d5c;stop-opacity:1;"
     offset="1"
     id="stop6331" /></linearGradient><linearGradient
   id="linearGradient832"><stop
     style="stop-color:#ffffff;stop-opacity:1.0000000;"
     offset="0.0000000"
     id="stop833" /><stop
     style="stop-color:#bac7d6;stop-opacity:1.0000000;"
     offset="0.33189783"
     id="stop850" /><stop
     style="stop-color:#7590ae;stop-opacity:1.0000000;"
     offset="1.0000000"
     id="stop834" /></linearGradient><linearGradient
   xlink:href="#linearGradient832"
   id="linearGradient839"
   x1="11.505464"
   y1="48.553692"
   x2="13.573926"
   y2="50.744305"
   spreadMethod="reflect"
   gradientTransform="matrix(-1.024955,0,0,0.975653,60.00915,0)"
   gradientUnits="userSpaceOnUse" /><linearGradient
   id="linearGradient842"><stop
     style="stop-color:#ffffff;stop-opacity:1.0000000;"
     offset="0.0000000"
     id="stop843" /><stop
     style="stop-color:#585858;stop-opacity:0.0000000;"
     offset="1.0000000"
     id="stop845" /></linearGradient><radialGradient
   xlink:href="#linearGradient842"
   id="radialGradient841"
   cx="34.320042"
   cy="15.739014"
   r="13.458489"
   fx="34.320042"
   fy="15.504011"
   spreadMethod="pad"
   gradientTransform="matrix(-0.998525,0,0,1.001478,60.00915,0)"
   gradientUnits="userSpaceOnUse" />
		
		
		<linearGradient
   y2="12.4975"
   x2="21.814899"
   y1="19.791"
   x1="21.814899"
   gradientUnits="userSpaceOnUse"
   id="aigrd1">
			<stop
   id="stop2191"
   style="stop-color:#989C80"
   offset="0" />
			<stop
   id="stop2193"
   style="stop-color:#000000"
   offset="1" />
		</linearGradient>
		
		<linearGradient
   y2="41.396801"
   x2="19.254801"
   y1="28.6201"
   x1="14.271"
   gradientUnits="userSpaceOnUse"
   id="aigrd2">
			<stop
   id="stop2198"
   style="stop-color:#DEDFCE"
   offset="0" />
			<stop
   id="stop2200"
   style="stop-color:#C2C4B5"
   offset="1" />
		</linearGradient>
		
		<linearGradient
   y2="11.1823"
   x2="14.9041"
   y1="37.626999"
   x1="41.348598"
   gradientUnits="userSpaceOnUse"
   id="aigrd3">
			<stop
   id="stop2205"
   style="stop-color:#989C80"
   offset="0" />
			<stop
   id="stop2207"
   style="stop-color:#91957A"
   offset="0.1523" />
			<stop
   id="stop2209"
   style="stop-color:#7D8169"
   offset="0.3784" />
			<stop
   id="stop2211"
   style="stop-color:#5D604E"
   offset="0.6506" />
			<stop
   id="stop2213"
   style="stop-color:#313229"
   offset="0.9562" />
			<stop
   id="stop2215"
   style="stop-color:#2A2B23"
   offset="1" />
		</linearGradient>
		
		<linearGradient
   y2="14.5714"
   x2="17.9305"
   y1="12.0313"
   x1="17.2153"
   gradientUnits="userSpaceOnUse"
   id="aigrd4">
			<stop
   id="stop2220"
   style="stop-color:#EFEFE0"
   offset="0" />
			<stop
   id="stop2222"
   style="stop-color:#FFFFFF"
   offset="1" />
		</linearGradient>
		
		<linearGradient
   y2="12.6152"
   x2="38.482899"
   y1="13.7388"
   x1="39.6064"
   gradientUnits="userSpaceOnUse"
   id="aigrd5">
			<stop
   id="stop2227"
   style="stop-color:#989C80"
   offset="0" />
			<stop
   id="stop2229"
   style="stop-color:#000000"
   offset="1" />
		</linearGradient>
		
		<linearGradient
   y2="-9.9314003"
   x2="2.1250999"
   y1="18.679199"
   x1="33.547901"
   gradientUnits="userSpaceOnUse"
   id="aigrd6">
			<stop
   id="stop2234"
   style="stop-color:#989C80"
   offset="0" />
			<stop
   id="stop2236"
   style="stop-color:#000000"
   offset="1" />
		</linearGradient>
		
		<linearGradient
   y2="8.4816999"
   x2="22.3922"
   y1="16.075701"
   x1="29.2852"
   gradientUnits="userSpaceOnUse"
   id="aigrd7">
			<stop
   id="stop2241"
   style="stop-color:#F2F2E1"
   offset="0" />
			<stop
   id="stop2243"
   style="stop-color:#FFFFFF"
   offset="1" />
		</linearGradient>
		
		<linearGradient
   y2="23.115999"
   x2="24.393299"
   y1="18.5991"
   x1="33.619099"
   gradientUnits="userSpaceOnUse"
   id="aigrd8">
			<stop
   id="stop2248"
   style="stop-color:#919186"
   offset="0" />
			<stop
   id="stop2250"
   style="stop-color:#F3F4E4"
   offset="1" />
		</linearGradient>
		
		
		
		<linearGradient
   y2="41.0667"
   x2="23.0389"
   y1="42.209"
   x1="23.730499"
   gradientUnits="userSpaceOnUse"
   id="aigrd9">
			<stop
   id="stop2259"
   style="stop-color:#63635C"
   offset="0" />
			<stop
   id="stop2261"
   style="stop-color:#F3F4E4"
   offset="1" />
		</linearGradient>
		
	<linearGradient
   xlink:href="#aigrd9"
   id="linearGradient9210"
   gradientUnits="userSpaceOnUse"
   x1="23.730499"
   y1="42.209"
   x2="23.0389"
   y2="41.0667" /><linearGradient
   xlink:href="#aigrd8"
   id="linearGradient9215"
   gradientUnits="userSpaceOnUse"
   x1="33.619099"
   y1="18.5991"
   x2="24.393299"
   y2="23.115999" /><linearGradient
   xlink:href="#aigrd7"
   id="linearGradient9218"
   gradientUnits="userSpaceOnUse"
   x1="29.2852"
   y1="16.075701"
   x2="22.3922"
   y2="8.4816999" /><linearGradient
   xlink:href="#aigrd6"
   id="linearGradient9221"
   gradientUnits="userSpaceOnUse"
   x1="33.547901"
   y1="18.679199"
   x2="2.1250999"
   y2="-9.9314003" /><linearGradient
   xlink:href="#aigrd5"
   id="linearGradient9224"
   gradientUnits="userSpaceOnUse"
   x1="39.6064"
   y1="13.7388"
   x2="38.482899"
   y2="12.6152" /><linearGradient
   xlink:href="#aigrd4"
   id="linearGradient9227"
   gradientUnits="userSpaceOnUse"
   x1="17.2153"
   y1="12.0313"
   x2="17.9305"
   y2="14.5714" /><linearGradient
   xlink:href="#aigrd3"
   id="linearGradient9230"
   gradientUnits="userSpaceOnUse"
   x1="41.348598"
   y1="37.626999"
   x2="14.9041"
   y2="11.1823" /><linearGradient
   xlink:href="#aigrd2"
   id="linearGradient9233"
   gradientUnits="userSpaceOnUse"
   x1="14.271"
   y1="28.6201"
   x2="19.254801"
   y2="41.396801" /><linearGradient
   xlink:href="#aigrd1"
   id="linearGradient9236"
   gradientUnits="userSpaceOnUse"
   x1="21.814899"
   y1="19.791"
   x2="21.814899"
   y2="12.4975" /><radialGradient
   xlink:href="#linearGradient843"
   id="radialGradient9243"
   gradientUnits="userSpaceOnUse"
   cx="53.184635"
   cy="54.527164"
   fx="52.710709"
   fy="54.527157"
   r="82.948898" /><linearGradient
   xlink:href="#linearGradient832"
   id="linearGradient9249"
   gradientUnits="userSpaceOnUse"
   gradientTransform="matrix(-0.484868,0,0,0.461545,44.58824,13.50091)"
   spreadMethod="reflect"
   x1="11.505464"
   y1="48.553692"
   x2="13.573926"
   y2="50.744305" /><linearGradient
   xlink:href="#linearGradient832"
   id="linearGradient11954"
   gradientUnits="userSpaceOnUse"
   gradientTransform="matrix(-0.504995,0,0,0.480704,46.33275,13.90517)"
   spreadMethod="reflect"
   x1="11.505464"
   y1="48.553692"
   x2="13.573926"
   y2="50.744305" /><linearGradient
   xlink:href="#aigrd9"
   id="linearGradient11958"
   gradientUnits="userSpaceOnUse"
   x1="23.730499"
   y1="42.209"
   x2="23.0389"
   y2="41.0667"
   gradientTransform="matrix(1.04151,0,0,1.04151,-0.106346,-0.156158)" /><linearGradient
   xlink:href="#aigrd8"
   id="linearGradient11963"
   gradientUnits="userSpaceOnUse"
   x1="33.619099"
   y1="18.5991"
   x2="24.393299"
   y2="23.115999"
   gradientTransform="matrix(1.04151,0,0,1.04151,-0.106346,-0.156158)" /><linearGradient
   xlink:href="#aigrd7"
   id="linearGradient11966"
   gradientUnits="userSpaceOnUse"
   x1="29.2852"
   y1="16.075701"
   x2="22.3922"
   y2="8.4816999"
   gradientTransform="matrix(1.04151,0,0,1.04151,-0.106346,-0.156158)" /><linearGradient
   xlink:href="#aigrd6"
   id="linearGradient11969"
   gradientUnits="userSpaceOnUse"
   x1="33.547901"
   y1="18.679199"
   x2="2.1250999"
   y2="-9.9314003"
   gradientTransform="matrix(1.04151,0,0,1.04151,-0.106346,-0.156158)" /><linearGradient
   xlink:href="#aigrd5"
   id="linearGradient11972"
   gradientUnits="userSpaceOnUse"
   x1="39.6064"
   y1="13.7388"
   x2="38.482899"
   y2="12.6152"
   gradientTransform="matrix(1.04151,0,0,1.04151,-0.106346,-0.156158)" /><linearGradient
   xlink:href="#aigrd4"
   id="linearGradient11975"
   gradientUnits="userSpaceOnUse"
   x1="17.2153"
   y1="12.0313"
   x2="17.9305"
   y2="14.5714"
   gradientTransform="matrix(1.04151,0,0,1.04151,-0.106346,-0.156158)" /><linearGradient
   xlink:href="#aigrd3"
   id="linearGradient11978"
   gradientUnits="userSpaceOnUse"
   x1="41.348598"
   y1="37.626999"
   x2="14.9041"
   y2="11.1823"
   gradientTransform="matrix(1.04151,0,0,1.04151,-0.106346,-0.156158)" /><linearGradient
   xlink:href="#aigrd2"
   id="linearGradient11981"
   gradientUnits="userSpaceOnUse"
   x1="14.271"
   y1="28.6201"
   x2="19.254801"
   y2="41.396801"
   gradientTransform="matrix(1.04151,0,0,1.04151,-0.106346,-0.156158)" /><linearGradient
   xlink:href="#aigrd1"
   id="linearGradient11984"
   gradientUnits="userSpaceOnUse"
   x1="21.814899"
   y1="19.791"
   x2="21.814899"
   y2="12.4975"
   gradientTransform="matrix(1.04151,0,0,1.04151,-0.106346,-0.156158)" /><linearGradient
   xlink:href="#aigrd1"
   id="linearGradient12892"
   gradientUnits="userSpaceOnUse"
   gradientTransform="matrix(1.04151,0,0,1.04151,-0.106346,-0.156158)"
   x1="21.814899"
   y1="19.791"
   x2="21.814899"
   y2="12.4975" /><linearGradient
   xlink:href="#aigrd2"
   id="linearGradient12894"
   gradientUnits="userSpaceOnUse"
   gradientTransform="matrix(1.04151,0,0,1.04151,-0.106346,-0.156158)"
   x1="14.271"
   y1="28.6201"
   x2="19.254801"
   y2="41.396801" /><linearGradient
   xlink:href="#aigrd3"
   id="linearGradient12896"
   gradientUnits="userSpaceOnUse"
   gradientTransform="matrix(1.04151,0,0,1.04151,-0.106346,-0.156158)"
   x1="41.348598"
   y1="37.626999"
   x2="14.9041"
   y2="11.1823" /><linearGradient
   xlink:href="#aigrd4"
   id="linearGradient12898"
   gradientUnits="userSpaceOnUse"
   gradientTransform="matrix(1.04151,0,0,1.04151,-0.106346,-0.156158)"
   x1="17.2153"
   y1="12.0313"
   x2="17.9305"
   y2="14.5714" /><linearGradient
   xlink:href="#aigrd5"
   id="linearGradient12900"
   gradientUnits="userSpaceOnUse"
   gradientTransform="matrix(1.04151,0,0,1.04151,-0.106346,-0.156158)"
   x1="39.6064"
   y1="13.7388"
   x2="38.482899"
   y2="12.6152" /><linearGradient
   xlink:href="#aigrd6"
   id="linearGradient12902"
   gradientUnits="userSpaceOnUse"
   gradientTransform="matrix(1.04151,0,0,1.04151,-0.106346,-0.156158)"
   x1="33.547901"
   y1="18.679199"
   x2="2.1250999"
   y2="-9.9314003" /><linearGradient
   xlink:href="#aigrd7"
   id="linearGradient12904"
   gradientUnits="userSpaceOnUse"
   gradientTransform="matrix(1.04151,0,0,1.04151,-0.106346,-0.156158)"
   x1="29.2852"
   y1="16.075701"
   x2="22.3922"
   y2="8.4816999" /><linearGradient
   xlink:href="#aigrd8"
   id="linearGradient12906"
   gradientUnits="userSpaceOnUse"
   gradientTransform="matrix(1.04151,0,0,1.04151,-0.106346,-0.156158)"
   x1="33.619099"
   y1="18.5991"
   x2="24.393299"
   y2="23.115999" /><linearGradient
   xlink:href="#aigrd9"
   id="linearGradient12908"
   gradientUnits="userSpaceOnUse"
   gradientTransform="matrix(1.04151,0,0,1.04151,-0.106346,-0.156158)"
   x1="23.730499"
   y1="42.209"
   x2="23.0389"
   y2="41.0667" /><linearGradient
   xlink:href="#linearGradient832"
   id="linearGradient12910"
   gradientUnits="userSpaceOnUse"
   gradientTransform="matrix(-0.504995,0,0,0.480704,46.33275,13.90517)"
   spreadMethod="reflect"
   x1="11.505464"
   y1="48.553692"
   x2="13.573926"
   y2="50.744305" />
<linearGradient
   xlink:href="#aigrd1"
   id="linearGradient21744"
   gradientUnits="userSpaceOnUse"
   gradientTransform="matrix(1.028738,0,0,1.028738,-0.0736243,-0.108109)"
   x1="21.814899"
   y1="19.791"
   x2="21.814899"
   y2="12.4975" /><linearGradient
   xlink:href="#aigrd2"
   id="linearGradient21746"
   gradientUnits="userSpaceOnUse"
   gradientTransform="matrix(1.028738,0,0,1.028738,-0.0736243,-0.108109)"
   x1="14.271"
   y1="28.6201"
   x2="19.254801"
   y2="41.396801" /><linearGradient
   xlink:href="#aigrd3"
   id="linearGradient21748"
   gradientUnits="userSpaceOnUse"
   gradientTransform="matrix(1.028738,0,0,1.028738,-0.0736243,-0.108109)"
   x1="41.348598"
   y1="37.626999"
   x2="14.9041"
   y2="11.1823" /><linearGradient
   xlink:href="#aigrd4"
   id="linearGradient21750"
   gradientUnits="userSpaceOnUse"
   gradientTransform="matrix(1.028738,0,0,1.028738,-0.0736243,-0.108109)"
   x1="17.2153"
   y1="12.0313"
   x2="17.9305"
   y2="14.5714" /><linearGradient
   xlink:href="#aigrd5"
   id="linearGradient21752"
   gradientUnits="userSpaceOnUse"
   gradientTransform="matrix(1.028738,0,0,1.028738,-0.0736243,-0.108109)"
   x1="39.6064"
   y1="13.7388"
   x2="38.482899"
   y2="12.6152" /><linearGradient
   xlink:href="#aigrd6"
   id="linearGradient21754"
   gradientUnits="userSpaceOnUse"
   gradientTransform="matrix(1.028738,0,0,1.028738,-0.0736243,-0.108109)"
   x1="33.547901"
   y1="18.679199"
   x2="2.1250999"
   y2="-9.9314003" /><linearGradient
   xlink:href="#aigrd7"
   id="linearGradient21756"
   gradientUnits="userSpaceOnUse"
   gradientTransform="matrix(1.028738,0,0,1.028738,-0.0736243,-0.108109)"
   x1="29.2852"
   y1="16.075701"
   x2="22.3922"
   y2="8.4816999" /><linearGradient
   xlink:href="#aigrd8"
   id="linearGradient21758"
   gradientUnits="userSpaceOnUse"
   gradientTransform="matrix(1.028738,0,0,1.028738,-0.0736243,-0.108109)"
   x1="33.619099"
   y1="18.5991"
   x2="24.393299"
   y2="23.115999" /><linearGradient
   xlink:href="#aigrd9"
   id="linearGradient21760"
   gradientUnits="userSpaceOnUse"
   gradientTransform="matrix(1.028738,0,0,1.028738,-0.0736243,-0.108109)"
   x1="23.730499"
   y1="42.209"
   x2="23.0389"
   y2="41.0667" /><radialGradient
   xlink:href="#radialGradient189"
   id="radialGradient21762"
   gradientUnits="userSpaceOnUse"
   gradientTransform="matrix(0.08615935,0,0,0.08615963,-35.76195,-37.37975)"
   spreadMethod="pad"
   cx="146.26581"
   cy="156.24411"
   fx="146.26581"
   fy="156.24411"
   r="106.33679" /><linearGradient
   xlink:href="#linearGradient843"
   id="linearGradient21764"
   gradientUnits="userSpaceOnUse"
   gradientTransform="matrix(0.02420955,-0.02578132,0.07372246,0.06922793,-35.62772,-1.89473)"
   spreadMethod="pad"
   x1="759.28833"
   y1="226.44621"
   x2="623.75806"
   y2="228.71227" /><linearGradient
   xlink:href="#linearGradient832"
   id="linearGradient21766"
   gradientUnits="userSpaceOnUse"
   gradientTransform="matrix(0.221689,0,0,0.221689,-43.43686,-41.81968)"
   x1="94.739082"
   y1="122.59224"
   x2="171.04437"
   y2="122.59224" />
<linearGradient
   xlink:href="#aigrd9"
   id="linearGradient2145"
   gradientUnits="userSpaceOnUse"
   gradientTransform="matrix(2.9200198,0,0,2.9200198,-3.9005062,-6.8000147)"
   x1="23.730499"
   y1="42.209"
   x2="23.0389"
   y2="41.0667" /><linearGradient
   xlink:href="#aigrd8"
   id="linearGradient2150"
   gradientUnits="userSpaceOnUse"
   gradientTransform="matrix(2.9200198,0,0,2.9200198,-3.9005062,-6.8000147)"
   x1="33.619099"
   y1="18.5991"
   x2="24.393299"
   y2="23.115999" /><linearGradient
   xlink:href="#aigrd7"
   id="linearGradient2153"
   gradientUnits="userSpaceOnUse"
   gradientTransform="matrix(2.9200198,0,0,2.9200198,-3.9005062,-6.8000147)"
   x1="29.2852"
   y1="16.075701"
   x2="22.3922"
   y2="8.4816999" /><linearGradient
   xlink:href="#aigrd6"
   id="linearGradient2156"
   gradientUnits="userSpaceOnUse"
   gradientTransform="matrix(2.9200198,0,0,2.9200198,-3.9005062,-6.8000147)"
   x1="33.547901"
   y1="18.679199"
   x2="2.1250999"
   y2="-9.9314003" /><linearGradient
   xlink:href="#aigrd5"
   id="linearGradient2159"
   gradientUnits="userSpaceOnUse"
   gradientTransform="matrix(2.9200198,0,0,2.9200198,-3.9005062,-6.8000147)"
   x1="39.6064"
   y1="13.7388"
   x2="38.482899"
   y2="12.6152" /><linearGradient
   xlink:href="#aigrd4"
   id="linearGradient2162"
   gradientUnits="userSpaceOnUse"
   gradientTransform="matrix(2.9200198,0,0,2.9200198,-3.9005062,-6.8000147)"
   x1="17.2153"
   y1="12.0313"
   x2="17.9305"
   y2="14.5714" /><linearGradient
   xlink:href="#aigrd3"
   id="linearGradient2165"
   gradientUnits="userSpaceOnUse"
   gradientTransform="matrix(2.9200198,0,0,2.9200198,-3.9005062,-6.8000147)"
   x1="41.348598"
   y1="37.626999"
   x2="14.9041"
   y2="11.1823" /><linearGradient
   xlink:href="#aigrd2"
   id="linearGradient2168"
   gradientUnits="userSpaceOnUse"
   gradientTransform="matrix(2.9200198,0,0,2.9200198,-3.9005062,-6.8000147)"
   x1="14.271"
   y1="28.6201"
   x2="19.254801"
   y2="41.396801" /><linearGradient
   xlink:href="#aigrd1"
   id="linearGradient2171"
   gradientUnits="userSpaceOnUse"
   gradientTransform="matrix(2.9200198,0,0,2.9200198,-3.9005062,-6.8000147)"
   x1="21.814899"
   y1="19.791"
   x2="21.814899"
   y2="12.4975" />
</defs>
	
	
<g
   id="g2189"><g
     style="fill-rule:nonzero;stroke:#000000;stroke-width:0.37594;stroke-miterlimit:4"
     id="Layer_x0020_3"
     transform="scale(2.6599995)">
		<path
   id="path2266"
   d="M 52,48 H 0 V 0 h 52 z"
   style="fill:none;stroke:none;stroke-width:0.37594" />
	</g><path
     style="fill-rule:nonzero;stroke:none;stroke-width:1;stroke-miterlimit:4"
     d="m 84.422662,5.2960555 v 0 c 0,0 -11.945778,6.3896025 -13.612629,7.2230285 -0.555621,0 -13.890441,0.277809 -13.890441,0.277809 L 8.3030541,33.076937 v 0 c -1.6668528,0.555618 -4.7227496,2.778082 -4.7227496,8.334262 v 0.833426 c 0,0 3.0558968,48.894347 3.0558968,49.172155 0,1.389046 0.2778088,3.889324 1.944661,6.111796 1.6668527,2.222472 3.8893237,3.333704 4.7227497,3.611514 17.501957,6.94522 44.171598,17.50195 45.560639,18.05757 2.22247,1.11124 4.722752,1.11124 5.556181,1.11124 v 0 h 0.277807 c 0.833426,0 3.055896,-0.27781 5.556173,-1.66686 L 109.70326,95.306104 c 1.38905,-0.833426 4.16713,-2.500278 5.27837,-5.278368 0.83343,-2.222472 1.11124,-4.167128 1.11124,-5.000557 v 0 l 1.38904,-48.616539 v 0 c 0,-3.611514 -1.38904,-6.111791 -2.77809,-7.223027 0,0 -1.38904,-1.666854 -1.38904,-1.666854 v 0 c 0,0 0,0 -0.27781,-0.27781 v 0 L 94.423782,6.9629081 C 93.034735,5.2960555 90.812263,4.1848205 88.589796,4.1848205 c -1.944661,0 -3.611513,0.8334263 -4.167134,1.111235 z"
     id="path2188" /><path
     style="fill:url(#linearGradient2171);fill-rule:nonzero;stroke:none;stroke-width:1;stroke-miterlimit:4"
     d="M 7.7795705,37.876281 64.427946,56.856409 112.02426,32.328245 111.14826,32.036244 57.711902,17.144145 Z"
     id="path2195" /><path
     style="fill:url(#linearGradient2168);fill-rule:nonzero;stroke:none;stroke-width:1;stroke-miterlimit:4"
     d="m 12.743604,96.860674 c 0,0 46.72031,18.396126 48.18032,18.980126 1.46001,0.58401 3.212021,0.58401 3.212021,0.58401 V 56.856409 L 7.7795705,37.876281 c 0,0 -1.1680079,0.292004 -0.876006,3.212024 l 3.2120215,51.684343 c 0,0 0,1.46001 0.584004,2.628016 0.876006,1.168008 2.044014,1.46001 2.044014,1.46001 z"
     id="path2202" /><path
     style="fill:url(#linearGradient2165);fill-rule:nonzero;stroke:none;stroke-width:1;stroke-miterlimit:4"
     d="m 112.02426,32.328245 c 0,0 0.87601,0.584006 0.87601,2.92002 l -1.46001,50.808339 c 0,0 0,1.46001 -0.584,2.628016 -0.58401,1.168009 -2.62802,2.336017 -2.62802,2.336017 L 66.763963,115.5488 c -1.168008,0.87601 -2.628018,0.87601 -2.628018,0.87601 V 56.856409 L 111.73226,32.328245 Z"
     id="path2217" /><path
     style="fill:url(#linearGradient2162);fill-rule:nonzero;stroke:none;stroke-width:1;stroke-miterlimit:4"
     d="M 7.7795705,37.876281 39.023778,40.504302 84.284079,16.560141 57.419901,17.436147 Z"
     id="path2224" /><path
     style="fill:url(#linearGradient2159);fill-rule:nonzero;stroke:none;stroke-width:1;stroke-miterlimit:4"
     d="m 110.27225,30.576237 -0.292,2.628015 1.75201,-0.876007 z"
     id="path2231" /><path
     style="fill:url(#linearGradient2156);fill-rule:nonzero;stroke:none;stroke-width:1;stroke-miterlimit:4"
     d="M 109.98025,33.204252 67.347966,55.104395 c 0,0 -1.752011,0.87601 -2.92002,0.584006 -1.168005,0 -2.044012,-1.168006 -2.044012,-1.168006 L 42.235802,34.664262 c 0,0 -0.292004,-0.292001 -0.292004,-1.168011 0,-0.876004 1.168008,-1.168006 1.168008,-1.168006 l 44.9683,-24.2361608 c 0,0 0.584003,-0.2920019 1.46001,-0.2920019 0.584003,0 0.876004,0.5840039 0.876004,0.5840039 l 19.56413,21.6081448 c 0,0 0.87601,0.876005 0.87601,1.752012 0,0.584002 -0.87601,1.168008 -0.87601,1.168008 z"
     id="path2238" /><path
     style="fill:url(#linearGradient2153);fill-rule:nonzero;stroke:none;stroke-width:1;stroke-miterlimit:4"
     d="m 68.223973,54.520395 c 0,0 -1.752011,1.46001 -3.212021,0 L 45.44782,34.956261 c -0.584002,-0.584 -0.584002,-1.168006 0.292002,-1.46001 L 87.788104,8.6760882 c 0,0 -44.092295,23.3601558 -44.676298,23.9441588 -1.168008,0.584005 -1.46001,1.752014 -0.584005,2.92002 0.584005,0.584005 15.184101,14.8921 20.440135,19.856132 1.168009,1.168006 -1.168005,0.876007 -1.168005,0.876007 0,0 5.548035,1.752009 6.716044,-1.460009 z"
     id="path2245" /><path
     style="fill:url(#linearGradient2150);fill-rule:nonzero;stroke:none;stroke-width:1;stroke-miterlimit:4"
     d="m 65.595955,112.92078 c 0.584005,-14.016091 0.292001,-48.180318 0.292001,-49.348324 0,-1.46001 -0.292001,-6.132041 3.504026,-8.468061 L 110.85626,32.328245 66.17996,55.688401 C 62.967936,57.148411 60.339921,55.396399 54.791885,53.644385 55.083887,53.93639 8.9475781,37.876281 8.9475781,37.876281 c 0,0 -2.6280175,-1.168006 -2.3360155,2.336017 l 3.5040234,53.144356 c 0,1.46001 1.168008,2.92002 2.628018,3.50402 C 11.575596,95.984669 10.991592,94.52466 10.69959,93.648655 L 7.4875685,40.796301 c 0,-0.876005 0.292002,-1.168006 0.8760057,-0.876005 0,0 49.3483278,16.936113 50.8083378,17.228115 3.212022,1.168008 2.628019,5.256034 2.92002,6.424045 0,0.876004 1.46001,49.932334 1.46001,49.932334 0,0 2.044013,3.79602 2.336014,-0.58401 z"
     id="path2252" /><path
     style="fill:#ffffff;fill-rule:nonzero;stroke:none;stroke-width:1;stroke-miterlimit:4"
     d="M 14.495615,36.708275 57.419901,17.436147 7.7795705,37.876281 11.575596,38.168285 39.023778,40.504302 14.787617,36.708275 Z"
     id="path2254" /><path
     style="fill:#a6a698;fill-rule:nonzero;stroke:none;stroke-width:1;stroke-miterlimit:4"
     d="m 111.44026,86.056604 1.16801,-43.216288 -2.92002,43.50829 c 0,0.876004 -0.292,1.46001 -0.87601,1.752011 L 96.25616,98.320684 c 0,0 12.26408,-7.300047 13.14009,-7.88405 0.876,-0.584005 2.04401,-1.752014 2.04401,-4.38003 z"
     id="path2256" /><path
     style="fill:url(#linearGradient2145);fill-rule:nonzero;stroke:none;stroke-width:1;stroke-miterlimit:4"
     d="m 60.339921,115.5488 c 3.212021,1.75201 5.256034,0.87601 8.468055,-0.87601 0,0 -3.212021,-0.292 -3.212021,-3.50402 -0.292002,-0.292 -2.336014,0.292 -2.336014,0 0,2.92002 -1.46001,4.67203 -2.92002,4.67203 z"
     id="path2263" /><g
     aria-label="XFP"
     transform="matrix(1.2445722,0.47390509,-0.26720805,0.70174213,0,0)"
     id="text3004"
     style="font-size:31.92px;line-height:0%;font-family:'Bitstream Vera Sans';stroke-width:1px"><path
       d="m 37.003182,103.25281 q -0.334526,-0.54039 -0.591855,-1.17084 -0.244461,-0.64333 -0.398858,-1.40244 l -0.295928,-0.47606 -0.02573,-0.257328 q -0.218729,-0.463191 -0.36026,-0.836317 -0.128664,-0.373126 -0.192996,-0.694786 0.01287,-0.0386 0.01287,-0.0772 0.01287,-0.0386 0.01287,-0.102931 0,-0.115798 -0.05147,-0.192996 -0.0386,-0.0772 -0.154397,-0.154397 -0.0772,-0.283061 -0.205862,-0.746252 -0.128664,-0.463191 -0.167263,-0.656187 l 0.02573,-0.231595 -0.102931,-0.154397 v -0.218729 l -0.154397,-0.167263 q -0.02573,-0.308794 -0.06433,-0.566122 -0.02573,-0.257328 -0.0772,-0.476057 v -0.102931 q 0,-0.218729 0.09007,-0.476057 0.09007,-0.257328 0.283061,-0.578989 l 0.128664,-0.128664 0.05147,-0.244461 0.373126,-0.553256 0.0772,-0.257328 0.270194,-0.102931 q 0.06433,-0.128664 0.18013,-0.192996 0.115797,-0.0772 0.347393,-0.128664 l 0.0386,-0.02573 q 0.334527,-0.205863 0.450324,-0.205863 0.115798,0 0.205863,0.154397 0.102931,0.154397 0.115797,0.385992 l 0.321661,0.06433 0.128664,0.283061 q 0.115797,0.231596 0.180129,0.437458 0.0772,0.192996 0.102932,0.398859 l -0.02573,0.218729 v 0.669053 q -0.02573,0.0386 -0.102931,0.154397 -0.0772,0.115797 -0.102932,0.180129 0,0.463191 0.0386,0.913515 0.05147,0.450324 0.141531,0.900649 l -0.02573,0.32166 0.128664,0.154397 -0.02573,0.244461 0.167264,0.128665 0.128664,0.656186 0.05147,0.102932 0.128664,0.694785 v 0.102932 q 0,0.128664 0.0386,0.244461 0.05147,0.102932 0.154397,0.231596 0.0772,0.308794 0.154396,0.578988 0.09007,0.257324 0.18013,0.488924 l 0.0772,0.42459 0.373125,-0.41172 q 0.102932,-0.29593 0.205863,-0.476061 0.115798,-0.192996 0.270194,-0.347393 l 0.18013,-0.308794 q 0.218729,-0.154397 0.360259,-0.347393 0.141531,-0.205862 0.244462,-0.527522 l 0.192996,-0.192997 q 0.09007,-0.334526 0.270195,-0.64332 0.18013,-0.308794 0.488923,-0.64332 l 0.154397,-0.231596 0.09007,-0.218728 0.411725,-0.630454 0.115798,-0.231596 0.283061,-0.578988 h -0.231596 q -0.167263,0.218729 -0.283061,0.295927 -0.102931,0.0772 -0.218729,0.0772 -0.05147,0 -0.09006,-0.01287 -0.02573,-0.01287 -0.05147,-0.02573 l -0.218729,-0.218729 q -0.0772,-0.102932 -0.102931,-0.141531 -0.01287,-0.0386 -0.01287,-0.0772 0,-0.0772 0.05147,-0.192996 0.06433,-0.128664 0.154397,-0.231596 l 0.218729,-0.295927 0.283061,-0.308794 1.029312,-0.926381 0.373126,-0.102931 0.128664,-0.244462 1.080778,-0.810584 q 0.141531,-0.14153 0.257328,-0.218729 0.128665,-0.0772 0.244462,-0.0772 0.167263,0 0.411725,0.385992 0.244462,0.373126 0.244462,0.759118 0,0.02573 -0.01287,0.0772 -0.01287,0.05147 -0.01287,0.0772 l -0.102931,0.205863 0.102931,0.102931 v 0.578988 q 0,0.205863 -0.06433,0.411725 -0.05147,0.192996 -0.167263,0.373126 -0.09007,0.514656 -0.283061,0.900648 -0.18013,0.373126 -0.488924,0.694786 -0.01287,0.102932 -0.09006,0.231596 -0.0772,0.115797 -0.192997,0.218729 l -0.167263,0.231595 -0.527522,0.578988 -0.630454,0.759118 q -0.128664,0.308794 -0.283061,0.514656 -0.141531,0.192997 -0.321661,0.283061 -0.295927,0.476057 -0.514656,0.771985 -0.205862,0.295927 -0.360259,0.476059 -0.115798,0.23159 -0.257328,0.45032 -0.128664,0.21873 -0.295928,0.46319 -0.128664,0.0515 -0.205862,0.14153 -0.06433,0.0772 -0.102931,0.21873 -0.128665,0.12867 -0.231596,0.2702 -0.09007,0.14153 -0.192996,0.34739 -0.257328,0.38599 -0.373126,0.57899 -0.102931,0.19299 -0.180129,0.33452 0.128664,0.4246 0.270194,0.81059 0.141531,0.37312 0.308794,0.72052 0.02573,0.19299 0.0772,0.32166 0.06433,0.12866 0.167264,0.21873 l 0.334526,0.56612 q 0.02573,0.16726 0.0772,0.28306 0.05147,0.10293 0.14153,0.16726 l 0.36026,0.70765 q 0.02573,0.18013 0.09006,0.3088 0.06433,0.1158 0.18013,0.16726 l 0.231595,0.42459 0.167264,0.39886 q 0.231595,0.33453 0.46319,0.70765 0.244462,0.37313 0.578989,0.91352 0.06433,0.0901 0.09006,0.1544 0.02573,0.0515 0.02573,0.11579 0,0.0129 -0.02573,0.0515 -0.01287,0.0386 -0.05147,0.10293 l -0.218729,0.10293 -0.476057,0.16726 q -0.18013,0 -0.334527,-0.0901 -0.154397,-0.0772 -0.295927,-0.2316 l -0.347393,0.0257 q -0.283061,-0.12867 -0.566122,-0.42459 -0.283061,-0.29593 -0.591855,-0.78485 l -0.05147,-0.32167 -0.231596,-0.0772 q -0.167263,-0.20587 -0.308793,-0.41173 -0.128664,-0.21873 -0.244462,-0.45032 -0.18013,-0.12867 -0.32166,-0.32166 -0.128664,-0.193 -0.231596,-0.48893 -0.0386,-0.18013 -0.128664,-0.29592 -0.09006,-0.1158 -0.257328,-0.2316 -0.180129,-0.32166 -0.437458,-0.90065 -0.05147,-0.10293 -0.0772,-0.15439 l -0.154397,0.10293 -0.128664,0.15439 -0.167263,0.33453 q -0.0772,0.1158 -0.18013,0.2316 -0.102931,0.11579 -0.257328,0.27019 l -0.553256,0.92638 q 0,0.193 -0.09006,0.36026 -0.0772,0.1544 -0.231596,0.29593 -0.192996,0.33452 -0.398858,0.66905 -0.205863,0.32166 -0.476057,0.73339 v 0.0515 q 0,0.2316 -0.411725,0.54039 -0.05147,0.0386 -0.0772,0.0643 l -0.270194,0.39886 -0.05147,0.2316 -0.347393,0.39886 -0.0772,0.20586 -0.836317,1.23517 q -0.05147,0.0772 -0.0772,0.0901 -0.01287,0.0257 -0.0386,0.0257 -0.05147,-0.0129 -0.154396,-0.1544 -0.01287,-0.0129 -0.02573,-0.0386 l -0.128664,-0.12866 q -0.01287,-0.0386 -0.01287,-0.1158 -0.01287,-0.0643 -0.01287,-0.14153 0,-0.14153 0.0386,-0.27019 0.02573,-0.12867 0.09006,-0.25733 l -0.02573,-0.45032 q -0.01287,-0.0386 -0.01287,-0.0901 -0.01287,-0.0386 -0.01287,-0.12866 0,-0.10293 0.05147,-0.20587 0.05147,-0.0901 0.154397,-0.15439 l 0.102931,-0.29593 q 0,-0.0515 -0.01287,-0.1158 -0.01287,-0.0515 -0.01287,-0.0643 0,-0.10293 0.0386,-0.193 0.05147,-0.10293 0.154396,-0.23159 l 0.733386,-1.28664 0.849182,-1.55684 0.18013,-0.25732 -0.05147,-0.1158 0.527523,-0.81059 q 0.102931,-0.15439 0.18013,-0.23159 0.09007,-0.0901 0.18013,-0.14153 0.02573,-0.24446 0.102931,-0.36026 0.0772,-0.1158 0.244462,-0.193 0.205862,-0.37312 0.424591,-0.78485 0.231595,-0.42459 0.257328,-0.48892 z"
       style="font-size:26.3504px;line-height:125%;font-family:'Staccato222 BT'"
       id="path2142" /><path
       d="m 48.235556,112.61955 -0.82345,-0.29593 q -0.128665,-0.87491 -0.192997,-1.89136 -0.06433,-1.00358 -0.06433,-2.21302 v -0.65619 l 0.102932,-0.27019 -0.128664,-0.36026 0.02573,-1.14511 0.0772,-0.12866 -0.05147,-0.36026 0.0772,-0.3474 -0.102932,-0.50179 0.02573,-1.10651 -0.257328,0.10293 -0.295927,0.0515 -0.424592,0.10293 -0.154397,-0.25733 0.450325,-0.65618 0.154397,-0.45033 0.707652,-0.42459 q 0.05147,-1.05504 0.128664,-1.827029 0.0772,-0.784851 0.192996,-1.46677 l 0.0772,-0.257329 -0.05147,-0.694786 q 0.270194,-1.222308 0.373126,-1.711232 0.115797,-0.501789 0.180129,-0.759118 l 0.398859,-0.553255 q 0.334527,-0.669053 1.080778,-1.32524 0.746252,-0.669053 1.814164,-1.235175 l 0.205862,0.02573 0.218729,-0.102931 0.733385,-0.154397 0.270195,0.0772 0.231595,-0.128664 0.578988,-0.0772 0.205863,0.128664 0.244462,-0.154397 1.556835,-0.02573 0.476057,0.578988 -0.02573,0.990714 -0.0386,0.192996 v 0.334526 q -0.115798,0.308794 -0.244462,0.553256 -0.115798,0.244461 -0.244462,0.450324 l -0.347393,-0.283061 -0.82345,-0.192996 -0.257328,-0.154397 -0.205862,0.128664 -1.055046,0.05147 -0.0772,-0.0772 -0.167263,0.102932 q -0.784851,0.14153 -1.157977,0.347393 -0.360259,0.205862 -0.527523,0.578988 l -0.424591,0.849183 -0.0772,0.180129 -0.05147,0.257329 -0.308794,1.955693 -0.270195,1.479637 -0.28306,0.476054 0.154396,0.20587 -0.05147,0.39885 1.029312,-0.34739 0.18013,0.0257 0.231595,-0.23159 0.900649,-0.14153 0.373126,-0.12867 1.029312,-0.231591 0.50179,0.0772 0.334527,-0.180129 q 1.016446,0 1.543968,0.192992 0.540389,0.18013 0.540389,0.54039 0,0.0901 -0.01287,0.12867 0,0.0257 -0.01287,0.0515 l -0.02573,0.82345 -0.05147,0.52753 -0.270194,0.41172 -0.385993,-0.12866 -1.428171,-0.1544 -0.270194,-0.12866 -0.308794,0.12866 h -0.295927 q -0.617588,0 -1.093645,0.0901 -0.476057,0.0772 -0.900648,0.25733 l -0.424592,-0.0901 -0.154397,0.24446 -0.32166,0.12866 q -0.102931,-0.0257 -0.205862,-0.0386 -0.09007,-0.0129 -0.218729,-0.0129 -0.244462,0 -0.424592,0.14153 -0.180129,0.12866 -0.283061,0.38599 l -0.0772,0.78485 -0.244462,0.45033 0.115798,0.34739 -0.09007,1.28664 -0.154397,0.47606 0.05147,0.34739 -0.205863,2.41888 -0.05147,0.29593 0.0772,0.20586 -0.02573,1.20945 -0.0772,0.15439 0.102931,0.193 -0.02573,0.50179 z"
       style="font-size:26.3504px;line-height:125%;font-family:'Staccato222 BT'"
       id="path2144" /><path
       d="m 61.114828,107.1642 -0.154397,1.78843 q 0.02573,0.0901 0.0386,0.14153 0.01287,0.0515 0.01287,0.0772 0,0.0515 -0.0772,0.20586 -0.01287,0.0257 -0.02573,0.0515 0.02573,0.0515 0.0386,0.10293 0.01287,0.0386 0.01287,0.0772 0,0.0515 -0.01287,0.0901 0,0.0257 -0.01287,0.0643 l 0.231595,0.51466 q 0.0772,0.0643 0.128664,0.10293 0.06433,0.0515 0.167263,0.10293 0.0386,0.0257 0.06433,0.0643 0.0386,0.0515 0.0386,0.0643 0,0.0129 -0.0386,0.0643 -0.0386,0.0643 -0.06433,0.12867 l -0.952114,1.20944 q -0.192996,0.24446 -0.360259,0.36026 -0.167263,0.1158 -0.347393,0.1158 -0.18013,-0.0129 -0.270195,-0.0772 -0.0772,-0.0515 -0.128664,-0.193 l -0.205862,-0.45032 -0.115798,-0.18013 q -0.05147,-0.20586 -0.0772,-0.38599 -0.02573,-0.18013 -0.02573,-0.32166 0,-0.12867 0,-0.24446 0.01287,-0.10294 0.02573,-0.24447 l -0.05147,-0.20586 0.128664,-0.33453 q 0,-0.0901 0.02573,-0.43745 0.02573,-0.3474 0.02573,-0.51466 l -0.05147,-0.20586 0.141531,-0.34739 -0.09007,-0.2316 q 0.01287,-0.0386 0.02573,-0.0901 0.01287,-0.0515 0.01287,-0.10294 -0.01287,-0.0772 -0.05147,-0.10293 -0.02573,-0.0257 -0.115797,-0.0257 h -0.0772 q -0.06433,0 -0.115797,-0.0257 -0.0386,-0.0257 -0.09006,-0.10293 l -0.102931,-0.12867 q -0.102932,-0.0772 -0.167264,-0.10293 -0.06433,-0.0386 -0.154397,-0.0643 -0.0772,-0.0643 -0.102931,-0.12867 -0.02573,-0.0643 -0.02573,-0.12866 0,-0.0515 0,-0.0772 0.01287,-0.0386 0.02573,-0.0643 0,-0.14153 0.102931,-0.2316 0.102932,-0.10293 0.283061,-0.12866 l 0.424592,-0.20586 0.0772,-0.14153 0.192996,-0.18013 0.0772,-0.57899 0.128664,-0.32166 -0.102931,-0.2316 0.205862,-1.73696 0.115798,-0.2702 -0.09007,-0.25732 q 0.06433,-0.16727 0.09007,-0.3474 0.02573,-0.18013 0.02573,-0.39886 v -0.23159 q 0.01287,-0.10293 0.102931,-0.65619 0.102931,-0.55325 0.154397,-0.92638 l 0.0772,-0.128663 -0.05147,-0.347393 q 0.05147,-0.128664 0.09006,-0.283061 0.0386,-0.154396 0.09006,-0.424591 0.0386,-0.295927 0.05147,-0.424591 0.01287,-0.141531 0.0386,-0.270195 l 0.0772,-0.283061 v -0.244462 q 0.06433,-0.46319 0.167263,-0.926381 0.115797,-0.476057 0.244462,-0.913515 v -0.308794 l 0.102931,-0.257328 q -0.05147,-0.154397 -0.09006,-0.270194 -0.0386,-0.128664 -0.06433,-0.244462 -0.115798,-0.218729 -0.283061,-0.411725 -0.154397,-0.192996 -0.347393,-0.347393 l -0.0772,-0.347393 -0.231596,-0.02573 -0.270194,-0.527522 -0.02573,-0.36026 q 0.06433,-0.167263 0.14153,-0.270194 0.09007,-0.102932 0.231596,-0.18013 l 0.578988,-0.707652 0.398859,-0.167264 q 0.205862,-0.231595 0.385992,-0.334526 0.180129,-0.102932 0.347393,-0.102932 0.0386,0 0.154397,0.02573 0.05147,0.01287 0.0772,0.02573 l 0.347393,0.0772 h 0.283061 l 0.373126,0.128664 0.102931,0.128664 0.771984,0.295927 q 0.347393,0.141531 0.578989,0.295927 0.244461,0.141531 0.424591,0.334527 l 0.36026,0.102931 q 0.205862,0.09007 0.360259,0.218729 0.167263,0.115798 0.295927,0.308794 l 0.192996,0.02573 0.231596,0.270194 h 0.192996 l 0.437458,0.733385 h 0.270194 q 1.18371,1.132244 1.865629,2.431751 0.68192,1.299507 0.874916,2.843476 v 0.205863 q 0,0.01287 0.01287,0.05147 0.0386,0.154397 0.0386,0.270195 0,0.05146 -0.01287,0.115798 0,0.06433 -0.01287,0.141527 v 0.39886 q 0,0.45033 -0.128664,0.97785 -0.115798,0.51465 -0.347393,1.04218 l -0.154397,0.16726 q -0.128664,0.51466 -0.437458,0.88778 -0.308794,0.36026 -0.797717,0.57899 -0.192996,0.0386 -0.347393,0.1544 -0.154397,0.10293 -0.295928,0.29593 l -0.334526,0.24446 q -1.273775,0.70765 -2.753411,1.31237 -1.466771,0.59186 -3.075071,1.05505 z m 0.295927,-1.71124 q 0.02573,0 0.0772,0.0129 0.05147,0.0129 0.0772,0.0129 0.50179,0 3.178002,-1.37671 l 0.192996,-0.10293 q 0.115798,-0.12866 0.283061,-0.2316 0.167264,-0.11579 0.385992,-0.19299 l 0.09006,-0.1544 0.527523,-0.33453 0.192996,-0.0901 0.102931,-0.2316 q 0.283061,-0.29592 0.450325,-0.74625 0.167263,-0.45032 0.257328,-1.14511 0,-0.0386 0.01287,-0.14153 0.01287,-0.10293 0.01287,-0.15439 0,-0.24447 -0.06433,-0.55326 -0.05146,-0.32166 -0.192996,-0.784851 v -0.09006 q 0,-0.167264 -0.115797,-0.463191 -0.02573,-0.06433 -0.0386,-0.102931 v -0.244462 q -0.28306,-0.411725 -0.630453,-0.964981 -0.347393,-0.553255 -0.398859,-0.591854 0,-0.231596 -0.102931,-0.347393 -0.09006,-0.115798 -0.32166,-0.18013 -0.527523,-0.604721 -0.990714,-1.016446 -0.450324,-0.411725 -0.82345,-0.617588 -0.0386,-0.154397 -0.115797,-0.244461 -0.0772,-0.102932 -0.18013,-0.102932 -0.01287,0.01287 -0.0386,0.02573 -0.02573,0 -0.06433,0.01287 l -1.32524,-0.694786 -0.01287,0.32166 q 0.128664,0.115797 0.205863,0.244462 0.09006,0.128664 0.14153,0.28306 l 0.244462,0.02573 0.32166,0.373126 q 0,0.154397 0.05147,0.244462 0.05147,0.09006 0.180129,0.14153 0.05147,0.0772 0.141531,0.218729 0.308794,0.50179 0.308794,0.733385 v 0.05147 0.05147 q 0,0.488923 -0.283061,1.569701 -0.283061,1.067912 -0.771985,2.27735 l 0.02573,0.193 -0.18013,0.36026 v 0.27019 l -0.347392,1.55684 -0.0772,0.20586 0.02573,0.1544 -0.05147,0.19299 z"
       style="font-size:26.3504px;line-height:125%;font-family:'Staccato222 BT'"
       id="path2146" /></g><g
     transform="matrix(2.8384482,0,0,2.8384482,122.46172,112.45135)"
     id="g21675"
     style="stroke-width:0.37594"><path
       style="font-size:12px;fill:url(#radialGradient21762);fill-opacity:0.99;fill-rule:evenodd;stroke:#000000;stroke-width:0.533805;stroke-miterlimit:4;stroke-dasharray:none;stroke-opacity:1"
       d="m -5.0337611,-14.688264 c 0,4.9134171 -3.983153,8.8965724 -8.8964859,8.8965724 -4.913417,0 -8.896486,-3.9830666 -8.896486,-8.8965724 0,-4.913418 3.983069,-8.896486 8.896486,-8.896486 4.9132464,0 8.8964859,3.983068 8.8964859,8.896486 z"
       id="path56" /><path
       style="font-size:12px;fill:url(#linearGradient21764);fill-opacity:1;fill-rule:evenodd;stroke:#000000;stroke-width:0.29953;stroke-linejoin:round;stroke-miterlimit:4;stroke-dasharray:none;stroke-opacity:0.992157"
       d="m -8.6615192,-7.0953983 9.43016675,8.855254 C 1.1402736,2.1003257 1.5325524,2.180014 1.8562582,1.9149781 2.5457287,1.1807442 3.2352015,0.44651026 3.924672,-0.28772368 4.10287,-0.62785228 4.0481328,-1.018455 3.766089,-1.2862952 l -9.4400586,-8.9906178 z"
       id="path354" /><path
       style="font-size:12px;fill:url(#linearGradient21766);fill-opacity:1;fill-rule:evenodd;stroke-width:2.90641;stroke-opacity:0.988235"
       d="m -5.5182024,-14.642366 c 0,4.671262 -3.7868428,8.458105 -8.4580226,8.458105 -4.671262,0 -8.458023,-3.786761 -8.458023,-8.458105 0,-4.67126 3.786761,-8.458024 8.458023,-8.458024 4.6710956,0 8.4580226,3.786764 8.4580226,8.458024 z"
       id="path188" /></g></g></svg>
