<?xml version="1.0" encoding="UTF-8" standalone="no"?>
<!-- Created with Inkscape (http://www.inkscape.org/) -->

<svg
   id="svg1"
   width="128"
   height="128"
   version="1.0"
   xmlns:xlink="http://www.w3.org/1999/xlink"
   xmlns="http://www.w3.org/2000/svg"
   xmlns:svg="http://www.w3.org/2000/svg"
   xmlns:rdf="http://www.w3.org/1999/02/22-rdf-syntax-ns#"
   xmlns:cc="http://creativecommons.org/ns#"
   xmlns:dc="http://purl.org/dc/elements/1.1/">
  <defs
     id="defs3">
    <linearGradient
       id="aigrd4"
       gradientUnits="userSpaceOnUse"
       x1="159.8643"
       y1="-13.3721"
       x2="160.7222"
       y2="-13.9155"
       gradientTransform="rotate(-90,102.2651,77.9751)">
      <stop
         offset="0"
         style="stop-color:#000000"
         id="stop6341" />
      <stop
         offset="0.5"
         style="stop-color:#616061"
         id="stop6343" />
      <stop
         offset="1"
         style="stop-color:#000000"
         id="stop6345" />
    </linearGradient>
    <linearGradient
       id="aigrd3"
       gradientUnits="userSpaceOnUse"
       x1="162.7832"
       y1="-6.8374"
       x2="166.95889"
       y2="-10.0693"
       gradientTransform="rotate(-90,102.2651,77.9751)">
      <stop
         offset="0"
         style="stop-color:#EFF0CE"
         id="stop6324" />
      <stop
         offset="0.5"
         style="stop-color:#FFFFFF"
         id="stop6326" />
      <stop
         offset="1"
         style="stop-color:#EFF0CE"
         id="stop6328" />
    </linearGradient>
    <linearGradient
       id="linearGradient2856">
      <stop
         offset="0.0000000"
         style="stop-color:#ffffff;stop-opacity:1.0000000;"
         id="stop2857" />
      <stop
         offset="1.0000000"
         style="stop-color:#e1e1df;stop-opacity:1.0000000;"
         id="stop2858" />
    </linearGradient>
    <linearGradient
       id="linearGradient2009">
      <stop
         offset="0.0000000"
         style="stop-color:#ffffff;stop-opacity:1.0000000;"
         id="stop2010" />
      <stop
         offset="1.0000000"
         style="stop-color:#e1e1df;stop-opacity:1.0000000;"
         id="stop2011" />
    </linearGradient>
    <linearGradient
       id="linearGradient1385">
      <stop
         offset="0.0000000"
         style="stop-color:#ffffff;stop-opacity:1.0000000;"
         id="stop1387" />
      <stop
         offset="1.0000000"
         style="stop-color:#e1e1df;stop-opacity:1.0000000;"
         id="stop1386" />
    </linearGradient>
    <linearGradient
       id="linearGradient6621">
      <stop
         style="stop-color:#f5a108;stop-opacity:0.0000000;"
         offset="0.0000000"
         id="stop6622" />
      <stop
         style="stop-color:#fefdc3;stop-opacity:0.74251497;"
         offset="1.0000000"
         id="stop6623" />
    </linearGradient>
    <linearGradient
       xlink:href="#linearGradient1385"
       id="linearGradient2807"
       gradientUnits="userSpaceOnUse"
       gradientTransform="matrix(1.02433,0,0,1.112847,3.383781,-23.61483)"
       x1="87.548065"
       y1="55.258511"
       x2="94.900642"
       y2="64.072975" />
    <linearGradient
       xlink:href="#linearGradient2009"
       id="linearGradient2813"
       gradientUnits="userSpaceOnUse"
       gradientTransform="matrix(0.221566,0,0,0.24106,49.14914,35.4452)"
       x1="46.715881"
       y1="41.173523"
       x2="325.39197"
       y2="347.38989" />
    <linearGradient
       xlink:href="#linearGradient2009"
       id="linearGradient22377"
       gradientUnits="userSpaceOnUse"
       gradientTransform="matrix(0.48816505,0,0,0.53111518,4.9129086,4.8166399)"
       x1="46.715881"
       y1="41.173523"
       x2="325.39197"
       y2="347.38989" />
    <linearGradient
       xlink:href="#linearGradient1385"
       id="linearGradient22379"
       gradientUnits="userSpaceOnUse"
       gradientTransform="matrix(2.2568539,0,0,2.4518789,-95.919568,-125.30731)"
       x1="87.548065"
       y1="55.258511"
       x2="94.900642"
       y2="64.072975" />
    <linearGradient
       xlink:href="#aigrd3"
       id="linearGradient22381"
       gradientUnits="userSpaceOnUse"
       gradientTransform="rotate(-90,102.2651,77.9751)"
       x1="162.7832"
       y1="-6.8374"
       x2="166.95889"
       y2="-10.0693" />
    <linearGradient
       xlink:href="#aigrd4"
       id="linearGradient22383"
       gradientUnits="userSpaceOnUse"
       gradientTransform="rotate(-90,102.2651,77.9751)"
       x1="159.8643"
       y1="-13.3721"
       x2="160.7222"
       y2="-13.9155" />
  </defs>
  <metadata
     id="metadata4">
    <rdf:RDF>
      <cc:Work
         rdf:about="">
        <dc:format>image/svg+xml</dc:format>
        <dc:type
           rdf:resource="http://purl.org/dc/dcmitype/StillImage" />
        <dc:date>2005-02-01</dc:date>
        <dc:creator>
          <cc:Agent>
            <dc:title>Jakub Steiner</dc:title>
          </cc:Agent>
        </dc:creator>
        <dc:source>http://jimmac.musichall.cz/</dc:source>
        <dc:contributor>
          <cc:Agent>
            <dc:title>Andreas Nilsson &lt;nisses.mail@home.se&gt;</dc:title>
          </cc:Agent>
        </dc:contributor>
        <cc:license
           rdf:resource="http://creativecommons.org/licenses/GPL/2.0/" />
      </cc:Work>
      <cc:License
         rdf:about="http://creativecommons.org/licenses/GPL/2.0/">
        <cc:permits
           rdf:resource="http://web.resource.org/cc/Reproduction" />
        <cc:permits
           rdf:resource="http://web.resource.org/cc/Distribution" />
        <cc:requires
           rdf:resource="http://web.resource.org/cc/Notice" />
        <cc:permits
           rdf:resource="http://web.resource.org/cc/DerivativeWorks" />
        <cc:requires
           rdf:resource="http://web.resource.org/cc/ShareAlike" />
        <cc:requires
           rdf:resource="http://web.resource.org/cc/SourceCode" />
      </cc:License>
    </rdf:RDF>
  </metadata>
  <g
     id="g2798">
    <path
       style="fill:none;fill-rule:nonzero;stroke:none;stroke-width:3.43265;stroke-miterlimit:4"
       d="M 125.80297,145.53366 H -24.89015 V -19.2333 h 150.69312 z"
       id="path1160" />
    <path
       style="fill:url(#linearGradient22377);fill-opacity:1;stroke:none;stroke-width:3.35561;stroke-linecap:round;stroke-linejoin:round;stroke-miterlimit:4;stroke-opacity:1"
       d="M 11.074777,7.6370541 V 121.18921 H 115.2756 V 23.445297 L 115.12716,23.296864 97.315057,8.0081407 Z"
       id="path2126" />
    <rect
       style="fill:#bababa;fill-opacity:1;stroke:none;stroke-width:0.685678;stroke-linecap:round;stroke-linejoin:round;stroke-miterlimit:4;stroke-opacity:1"
       id="rect2143"
       width="102.59773"
       height="2.5810747"
       x="11.758768"
       y="117.39695" />
    <rect
       style="fill:#bababa;fill-opacity:1;stroke:none;stroke-width:0.685678;stroke-linecap:round;stroke-linejoin:round;stroke-miterlimit:4;stroke-opacity:1"
       id="rect2144"
       width="2.5810747"
       height="89.122025"
       x="111.77541"
       y="30.210712" />
    <path
       style="opacity:0.573333;fill:#000000;fill-opacity:1;stroke:#000000;stroke-width:0.831017;stroke-linecap:round;stroke-linejoin:round;stroke-miterlimit:4;stroke-opacity:1"
       d="M 96.419645,8.4926417 95.775166,28.591414 c 8.319074,-0.603633 10.935254,-0.596239 18.846964,0.633198 v -3.904566 z"
       id="path2145" />
    <path
       style="fill:url(#linearGradient22379);fill-opacity:1;stroke:#ccc7cc;stroke-width:0.764856;stroke-linecap:round;stroke-linejoin:round;stroke-miterlimit:4;stroke-opacity:1"
       d="m 96.462234,7.8752209 -0.03054,18.4591741 c 7.430356,-1.15833 11.194566,-1.094598 18.624916,0.191176 z"
       id="path2146" />
    <path
       style="fill:none;fill-opacity:1;stroke:#000000;stroke-width:1.18469;stroke-linecap:round;stroke-linejoin:round;stroke-miterlimit:4;stroke-dasharray:none;stroke-opacity:1"
       d="M 11.074779,7.6370541 V 121.18921 H 115.2756 V 25.48205 L 97.315057,8.0081407 Z"
       id="path2149" />
    <rect
       style="fill:#989995;fill-opacity:1;stroke:none;stroke-width:0.685678;stroke-linecap:round;stroke-linejoin:round;stroke-miterlimit:4;stroke-opacity:1"
       id="rect2150"
       width="2.7489371"
       height="3.000828"
       x="111.40646"
       y="117.14498" />
    <rect
       style="opacity:0.262222;fill:#000000;fill-opacity:1;stroke:none;stroke-width:3.14181;stroke-linecap:round;stroke-linejoin:round;stroke-miterlimit:4;stroke-opacity:1"
       id="rect2151"
       width="51.880035"
       height="2.8514485"
       x="17.971325"
       y="69.355667" />
    <rect
       style="opacity:0.262222;fill:#000000;fill-opacity:1;stroke:none;stroke-width:3.14181;stroke-linecap:round;stroke-linejoin:round;stroke-miterlimit:4;stroke-opacity:1"
       id="rect2152"
       width="53.446426"
       height="2.8514485"
       x="17.971325"
       y="63.913025" />
    <rect
       style="opacity:0.262222;fill:#000000;fill-opacity:1;stroke:none;stroke-width:3.14181;stroke-linecap:round;stroke-linejoin:round;stroke-miterlimit:4;stroke-opacity:1"
       id="rect2153"
       width="48.538578"
       height="2.8514485"
       x="17.971325"
       y="74.798317" />
    <rect
       style="opacity:0.262222;fill:#000000;fill-opacity:1;stroke:none;stroke-width:3.14181;stroke-linecap:round;stroke-linejoin:round;stroke-miterlimit:4;stroke-opacity:1"
       id="rect2154"
       width="46.952969"
       height="2.8514485"
       x="17.971325"
       y="79.888435" />
    <rect
       style="opacity:0.262222;fill:#000000;fill-opacity:1;stroke:none;stroke-width:3.14181;stroke-linecap:round;stroke-linejoin:round;stroke-miterlimit:4;stroke-opacity:1"
       id="rect2156"
       width="43.627239"
       height="2.8514485"
       x="17.971325"
       y="86.863182" />
    <rect
       style="opacity:0.262222;fill:#000000;fill-opacity:1;stroke:none;stroke-width:3.14181;stroke-linecap:round;stroke-linejoin:round;stroke-miterlimit:4;stroke-opacity:1"
       id="rect2159"
       width="67.282784"
       height="2.8514485"
       x="17.971298"
       y="26.849848" />
    <rect
       style="opacity:0.262222;fill:#000000;fill-opacity:1;stroke:none;stroke-width:3.14181;stroke-linecap:round;stroke-linejoin:round;stroke-miterlimit:4;stroke-opacity:1"
       id="rect2160"
       width="61.199432"
       height="2.8514485"
       x="17.971298"
       y="37.735153" />
    <rect
       style="opacity:0.262222;fill:#000000;fill-opacity:1;stroke:none;stroke-width:3.14181;stroke-linecap:round;stroke-linejoin:round;stroke-miterlimit:4;stroke-opacity:1"
       id="rect2161"
       width="59.444843"
       height="2.8514485"
       x="17.971298"
       y="43.177803" />
    <rect
       style="opacity:0.262222;fill:#000000;fill-opacity:1;stroke:none;stroke-width:3.14181;stroke-linecap:round;stroke-linejoin:round;stroke-miterlimit:4;stroke-opacity:1"
       id="rect2162"
       width="56.575634"
       height="2.8514485"
       x="17.971298"
       y="48.620445" />
    <rect
       style="opacity:0.262222;fill:#000000;fill-opacity:1;stroke:none;stroke-width:3.14181;stroke-linecap:round;stroke-linejoin:round;stroke-miterlimit:4;stroke-opacity:1"
       id="rect2163"
       width="55.58712"
       height="2.8514485"
       x="17.971298"
       y="54.063076" />
    <rect
       style="opacity:0.262222;fill:#000000;fill-opacity:1;stroke:none;stroke-width:3.14181;stroke-linecap:round;stroke-linejoin:round;stroke-miterlimit:4;stroke-opacity:1"
       id="rect2177"
       width="67.282784"
       height="2.8514485"
       x="18.474121"
       y="16.009211" />
    <rect
       style="opacity:0.262222;fill:#000000;fill-opacity:1;stroke:none;stroke-width:3.14181;stroke-linecap:round;stroke-linejoin:round;stroke-miterlimit:4;stroke-opacity:1"
       id="rect2178"
       width="66.803253"
       height="2.8514485"
       x="18.474121"
       y="21.45186" />
    <g
       transform="matrix(0.55666846,-0.29632816,0.24943862,0.66131177,92.180116,-82.449872)"
       id="g7353"
       style="stroke-width:0.371596">
      <path
         transform="matrix(5.242641,0,0,5.242641,-168.5743,98.42926)"
         id="path6320"
         d="m 9.6,20.9 2.9,-5.5 7.9,-5.9 1.2,0.1 1.4,1.4 -0.1,1.4 -7.5,6.2 z"
         style="fill:none;fill-rule:nonzero;stroke:#000000;stroke-width:0.315414;stroke-linecap:round;stroke-linejoin:round;stroke-miterlimit:4" />
      <path
         transform="matrix(5.242641,0,0,5.242641,-168.5743,98.42926)"
         id="path6331"
         d="m 9.6,20.9 2.9,-5.5 7.9,-5.9 1.2,0.1 1.4,1.4 -0.1,1.4 -7.5,6.2 z"
         style="fill:url(#linearGradient22381);fill-rule:nonzero;stroke:none;stroke-width:0.167516;stroke-linecap:round;stroke-miterlimit:4" />
      <path
         transform="matrix(5.242641,0,0,5.242641,-168.5743,98.42926)"
         id="path6333"
         d="M 15.9,16.7 23,11 l -0.1,1.4 -7.5,6.2 z"
         style="fill:#96833e;fill-rule:nonzero;stroke:none;stroke-width:0.167516;stroke-linecap:round;stroke-miterlimit:4" />
      <path
         transform="matrix(5.242641,0,0,5.242641,-168.5743,98.42926)"
         id="path6335"
         d="M 14.4,15.2 21.7,9.6 23,11 15.8,16.7 14.3,15.2 Z"
         style="fill:#c8af53;fill-rule:nonzero;stroke:none;stroke-width:0.167516;stroke-linecap:round;stroke-miterlimit:4" />
      <path
         transform="matrix(5.242641,0,0,5.242641,-168.5743,98.42926)"
         id="path6337"
         d="m 12.4,15.4 7.9,-5.9 1.2,0.1 -7.3,5.6 -1.9,0.2 z"
         style="fill:#f7e46e;fill-rule:nonzero;stroke:none;stroke-width:0.167516;stroke-linecap:round;stroke-miterlimit:4" />
      <path
         transform="matrix(5.242641,0,0,5.242641,-168.5743,98.42926)"
         id="path6348"
         d="m 10.9,18.4 c 0.9,0 1.4,0.5 1.4,1.4 l -2.7,1.1 z"
         style="fill:url(#linearGradient22383);fill-rule:nonzero;stroke:none;stroke-width:0.167516;stroke-linecap:round;stroke-miterlimit:4" />
    </g>
    <g
       aria-label="XFW"
       transform="scale(1.3317427,0.75089582)"
       id="text3004"
       style="font-size:26.439px;line-height:0%;font-family:'Bitstream Vera Sans';fill:#000004;stroke-width:0.818719px">
      <path
         d="m 23.394808,142.145 q -0.435158,-0.70295 -0.769895,-1.52305 -0.318001,-0.83684 -0.518843,-1.82432 l -0.384948,-0.61926 -0.03347,-0.33474 q -0.284527,-0.60253 -0.468632,-1.0879 -0.167369,-0.48537 -0.251053,-0.90379 0.01674,-0.0502 0.01674,-0.10042 0.01674,-0.0502 0.01674,-0.13389 0,-0.15064 -0.06695,-0.25106 -0.05021,-0.10042 -0.200842,-0.20084 -0.100421,-0.36821 -0.26779,-0.97074 -0.167369,-0.60252 -0.217579,-0.85358 l 0.03347,-0.30126 -0.133895,-0.20084 v -0.28453 l -0.200843,-0.21758 q -0.03347,-0.40168 -0.08368,-0.73642 -0.03347,-0.33474 -0.100421,-0.61927 v -0.13389 q 0,-0.28453 0.117158,-0.61926 0.117158,-0.33474 0.368211,-0.75316 l 0.167368,-0.16737 0.06695,-0.318 0.485369,-0.71969 0.100421,-0.33474 0.351474,-0.13389 q 0.08368,-0.16737 0.234316,-0.25105 0.150632,-0.10042 0.451896,-0.16737 l 0.05021,-0.0335 q 0.435159,-0.26779 0.585791,-0.26779 0.150631,0 0.26779,0.20085 0.133894,0.20084 0.150631,0.5021 l 0.418422,0.0837 0.167369,0.36821 q 0.150631,0.30126 0.234316,0.56905 0.100421,0.25105 0.133895,0.51884 l -0.03347,0.28453 v 0.87032 q -0.03347,0.0502 -0.133895,0.20084 -0.100421,0.15063 -0.133895,0.23432 0,0.60252 0.05021,1.18831 0.06695,0.58579 0.184105,1.17158 l -0.03347,0.41843 0.167369,0.20084 -0.03347,0.318 0.21758,0.16737 0.167368,0.85358 0.06695,0.13389 0.167368,0.90379 v 0.1339 q 0,0.16737 0.05021,0.318 0.06695,0.13389 0.200842,0.30126 0.100422,0.40169 0.200843,0.75316 0.117158,0.33474 0.234316,0.636 l 0.100421,0.55232 0.485369,-0.53558 q 0.133895,-0.38495 0.26779,-0.61926 0.150632,-0.25106 0.351474,-0.4519 l 0.234316,-0.40168 q 0.284527,-0.20085 0.468632,-0.4519 0.184106,-0.26779 0.318001,-0.68621 l 0.251053,-0.25105 q 0.117158,-0.43516 0.351474,-0.83685 0.234316,-0.40168 0.636001,-0.83684 l 0.200842,-0.30126 0.117158,-0.28453 0.53558,-0.82011 0.150632,-0.30126 0.368211,-0.75316 h -0.301264 q -0.217579,0.28453 -0.368211,0.38495 -0.133895,0.10042 -0.284526,0.10042 -0.06695,0 -0.117159,-0.0167 -0.03347,-0.0167 -0.06695,-0.0335 l -0.284527,-0.28453 q -0.100421,-0.13389 -0.133895,-0.1841 -0.01674,-0.0502 -0.01674,-0.10043 0,-0.10042 0.06695,-0.25105 0.08368,-0.16737 0.200842,-0.30126 l 0.284527,-0.38495 0.368211,-0.40168 1.338949,-1.20506 0.485369,-0.13389 0.167369,-0.318 1.405897,-1.05443 q 0.184105,-0.1841 0.334737,-0.28452 0.167369,-0.10042 0.318,-0.10042 0.21758,0 0.53558,0.5021 0.318001,0.48537 0.318001,0.98748 0,0.0335 -0.01674,0.10042 -0.01674,0.0669 -0.01674,0.10042 l -0.133895,0.26779 0.133895,0.13389 v 0.75316 q 0,0.26779 -0.08369,0.53558 -0.06695,0.25106 -0.217579,0.48537 -0.117158,0.66948 -0.368211,1.17158 -0.234316,0.48537 -0.636001,0.90379 -0.01674,0.1339 -0.117158,0.30127 -0.100421,0.15063 -0.251053,0.28452 l -0.217579,0.30127 -0.686211,0.75316 -0.820107,0.98747 q -0.167368,0.40169 -0.368211,0.66947 -0.184105,0.25106 -0.418421,0.36822 -0.384948,0.61926 -0.669475,1.00421 -0.26779,0.38495 -0.468632,0.61926 -0.150632,0.30127 -0.334738,0.58579 -0.167368,0.28453 -0.384947,0.60253 -0.167369,0.067 -0.26779,0.1841 -0.08368,0.10043 -0.133895,0.28453 -0.167369,0.16737 -0.301264,0.35148 -0.117158,0.1841 -0.251053,0.45189 -0.334737,0.50211 -0.485369,0.75316 -0.133895,0.25105 -0.234316,0.43516 0.167369,0.55231 0.351474,1.05442 0.184106,0.48537 0.401685,0.93727 0.03347,0.25105 0.100421,0.41842 0.08368,0.16737 0.217579,0.28452 l 0.435159,0.73643 q 0.03347,0.21758 0.100421,0.36821 0.06695,0.13389 0.184106,0.21758 l 0.468632,0.92052 q 0.03347,0.23432 0.117158,0.40169 0.08368,0.15063 0.234316,0.21758 l 0.301264,0.55231 0.217579,0.51885 q 0.301263,0.43516 0.602527,0.92052 0.318,0.48537 0.753159,1.18832 0.08368,0.11716 0.117158,0.20084 0.03347,0.0669 0.03347,0.15064 0,0.0167 -0.03347,0.0669 -0.01674,0.0502 -0.06695,0.1339 l -0.284526,0.13389 -0.619264,0.21758 q -0.234316,0 -0.435159,-0.11716 -0.200842,-0.10042 -0.384948,-0.30126 l -0.451895,0.0335 q -0.368211,-0.16736 -0.736422,-0.55231 -0.368211,-0.38495 -0.769896,-1.02095 l -0.06695,-0.41842 -0.301264,-0.10042 q -0.217579,-0.26779 -0.401685,-0.53558 -0.167368,-0.28453 -0.318,-0.58579 -0.234316,-0.16737 -0.418422,-0.41842 -0.167368,-0.25106 -0.301263,-0.63601 -0.05021,-0.23431 -0.167369,-0.38494 -0.117158,-0.15064 -0.334737,-0.30127 -0.234316,-0.41842 -0.569054,-1.17158 -0.06695,-0.13389 -0.100421,-0.20084 l -0.200842,0.13389 -0.167369,0.20085 -0.217579,0.43516 q -0.100421,0.15063 -0.234316,0.30126 -0.133895,0.15063 -0.334738,0.35147 l -0.719685,1.20506 q 0,0.25105 -0.117158,0.46863 -0.100421,0.20084 -0.301263,0.38495 -0.251053,0.43516 -0.518843,0.87031 -0.26779,0.41843 -0.619264,0.95401 v 0.0669 q 0,0.30127 -0.53558,0.70295 -0.06695,0.0502 -0.100421,0.0837 l -0.351474,0.51884 -0.06695,0.30126 -0.451895,0.51885 -0.100421,0.26779 -1.087896,1.60673 q -0.06695,0.10043 -0.100422,0.11716 -0.01674,0.0335 -0.05021,0.0335 -0.06695,-0.0167 -0.200843,-0.20085 -0.01674,-0.0167 -0.03347,-0.0502 l -0.167369,-0.16737 q -0.01674,-0.0502 -0.01674,-0.15063 -0.01674,-0.0837 -0.01674,-0.1841 0,-0.18411 0.05021,-0.35148 0.03347,-0.16737 0.117158,-0.33473 l -0.03347,-0.58579 q -0.01674,-0.0502 -0.01674,-0.11716 -0.01674,-0.0502 -0.01674,-0.16737 0,-0.1339 0.06695,-0.26779 0.06695,-0.11716 0.200842,-0.20084 l 0.133895,-0.38495 q 0,-0.0669 -0.01674,-0.15063 -0.01674,-0.067 -0.01674,-0.0837 0,-0.13389 0.05021,-0.25105 0.06695,-0.1339 0.200842,-0.30126 l 0.954002,-1.67369 1.104633,-2.02516 0.234316,-0.33474 -0.06695,-0.15063 0.686211,-1.05442 q 0.133895,-0.20085 0.234316,-0.30127 0.117158,-0.11715 0.234316,-0.1841 0.03347,-0.318 0.133895,-0.46863 0.100421,-0.15064 0.318001,-0.25106 0.267789,-0.48537 0.552316,-1.02095 0.301264,-0.55231 0.334737,-0.636 z"
         style="font-size:34.2771px;line-height:125%;font-family:'Staccato222 BT'"
         id="path2742" />
      <path
         d="m 38.006091,154.32944 -1.071159,-0.38495 q -0.167369,-1.1381 -0.251053,-2.46032 -0.08368,-1.30547 -0.08368,-2.87874 v -0.85358 l 0.133895,-0.35147 -0.167369,-0.46863 0.03347,-1.48958 0.100421,-0.16737 -0.06695,-0.46864 0.100422,-0.45189 -0.133895,-0.65274 0.03347,-1.43937 -0.334737,0.1339 -0.384948,0.0669 -0.552316,0.1339 -0.200843,-0.33474 0.585791,-0.85358 0.200842,-0.58579 0.920528,-0.55232 q 0.06695,-1.37242 0.167368,-2.37663 0.100421,-1.02095 0.251053,-1.908 l 0.100421,-0.33474 -0.06695,-0.90379 q 0.351474,-1.59 0.485369,-2.226 0.150632,-0.65274 0.234316,-0.98748 l 0.518843,-0.71968 q 0.435158,-0.87032 1.405897,-1.7239 0.970738,-0.87032 2.359898,-1.60674 l 0.267789,0.0335 0.284527,-0.13389 0.954001,-0.20084 0.351475,0.10042 0.301263,-0.16737 0.753159,-0.10042 0.26779,0.16737 0.318,-0.20085 2.025161,-0.0335 0.619264,0.75316 -0.03347,1.28874 -0.05021,0.25105 v 0.43516 q -0.150632,0.40168 -0.318001,0.71968 -0.150632,0.318 -0.318,0.58579 l -0.451896,-0.36821 -1.071159,-0.25105 -0.334737,-0.20084 -0.26779,0.16737 -1.372423,0.0669 -0.100421,-0.10042 -0.217579,0.1339 q -1.020949,0.1841 -1.506318,0.45189 -0.468632,0.26779 -0.686212,0.75316 l -0.552316,1.10464 -0.100421,0.23431 -0.06695,0.33474 -0.401685,2.544 -0.351474,1.92474 -0.368211,0.61927 0.200842,0.26779 -0.06695,0.51884 1.338949,-0.4519 0.234316,0.0335 0.301264,-0.30127 1.17158,-0.1841 0.48537,-0.16737 1.338949,-0.30126 0.652737,0.10042 0.435159,-0.23432 q 1.322212,0 2.008424,0.25105 0.702948,0.23432 0.702948,0.70295 0,0.11716 -0.01674,0.16737 0,0.0335 -0.01674,0.0669 l -0.03347,1.07116 -0.06695,0.68621 -0.351474,0.53558 -0.502106,-0.16737 -1.857792,-0.20084 -0.351474,-0.16737 -0.401685,0.16737 h -0.384948 q -0.803369,0 -1.422633,0.11716 -0.619264,0.10042 -1.171581,0.33473 l -0.552316,-0.11716 -0.200843,0.318 -0.418421,0.16737 q -0.133895,-0.0335 -0.26779,-0.0502 -0.117158,-0.0167 -0.284527,-0.0167 -0.318,0 -0.552316,0.1841 -0.234317,0.16737 -0.368212,0.50211 l -0.100421,1.02095 -0.318,0.58579 0.150632,0.45189 -0.117158,1.67369 -0.200843,0.61926 0.06695,0.4519 -0.26779,3.14653 -0.06695,0.38495 0.100422,0.26779 -0.03347,1.57326 -0.100421,0.20084 0.133895,0.25106 -0.03347,0.65273 z"
         style="font-size:34.2771px;line-height:125%;font-family:'Staccato222 BT'"
         id="path2744" />
      <path
         d="m 53.11948,138.42942 h -0.100421 q -0.150632,0 -0.26779,-0.0837 -0.117158,-0.0837 -0.217579,-0.26779 l -0.167369,-0.92052 -0.03347,-0.88706 0.03347,-0.90379 -0.03347,-0.16737 v -0.98747 l 0.06695,-0.4519 0.03347,-0.318 q 0.03347,-0.40168 0.100422,-1.18831 0.117158,-1.50632 0.267789,-2.09211 l 0.184106,-0.36821 -0.100421,-0.30127 q 0.01674,-0.65273 0.184105,-1.35568 0.184106,-0.71969 0.569054,-1.70716 0.133895,-0.15063 0.217579,-0.18411 0.100421,-0.0502 0.234316,-0.0669 0.08368,-0.0167 0.184106,-0.0167 0.100421,-0.0167 0.284526,-0.0167 0.200843,0 0.284527,0.0167 0.08368,0.0167 0.133895,0.0335 l 0.702948,0.33474 q 0.150632,0.16737 0.284527,0.38495 0.133895,0.20084 0.234316,0.43515 l 0.619264,0.88706 q 0.03347,0.1841 0.05021,0.38495 0.01674,0.20084 0.01674,0.58579 0,0.15063 -0.03347,0.45189 -0.03347,0.30127 -0.133895,0.92053 0,0.0335 0.01674,0.11716 0.01674,0.0837 0.01674,0.11716 0,0.21757 -0.06695,0.46863 -0.05021,0.25105 -0.200842,0.65274 l 0.06695,0.45189 v 0.16737 q 0,0.18411 -0.05021,0.30126 -0.05021,0.10042 -0.167369,0.21758 0.100421,0.16737 0.150632,0.33474 0.06695,0.16737 0.06695,0.35147 0,0.067 -0.01674,0.16737 -0.01674,0.10042 -0.05021,0.30127 l 0.03347,0.80337 -0.217579,1.02094 0.167369,0.28453 v 0.61927 q 0.01674,0.15063 0.01674,0.30126 0.01674,0.15063 0.03347,0.30126 l 0.03347,0.93727 q 0.03347,0.0837 0.05021,0.13389 0.01674,0.0335 0.01674,0.067 0,0.0335 -0.01674,0.0837 -0.01674,0.0335 -0.05021,0.11716 l -0.03347,0.35148 q 0.08369,0.33473 0.133895,0.71968 0.05021,0.38495 0.100422,1.15484 l -0.03347,0.16737 q 0.06695,0.75316 0.133895,1.15485 0.06695,0.40168 0.167368,0.70295 l 0.03347,0.46863 q 0.06695,0.16737 0.08368,0.23431 0.01674,0.0669 0.01674,0.11716 0,0.0669 -0.03347,0.21758 -0.01674,0.0669 -0.03347,0.10042 0.100421,0.78663 0.251053,1.55653 0.150632,0.7699 0.334737,1.48958 0.26779,-0.23431 0.451896,-0.53558 0.200842,-0.318 0.334737,-0.73642 l 0.06695,-0.26779 q 0.100421,-0.23432 0.251053,-0.46863 0.167369,-0.23432 0.502106,-0.66948 l -0.06695,-0.23431 0.619264,-1.272 v -0.33474 l 0.619264,-1.272 0.133895,-0.10043 v -0.45189 q 0.184105,-0.38495 0.334737,-0.83684 0.167369,-0.46864 0.384948,-1.23853 l 0.217579,-0.38495 0.167369,-0.7699 q 0.05021,-0.1841 0.133895,-0.33473 0.08368,-0.15063 0.200842,-0.26779 l -0.100421,-0.38495 0.284527,-1.05442 0.167368,-0.85358 0.167369,-0.21758 -0.06695,-0.53558 q 0.133895,-0.7699 0.251053,-1.35569 0.133895,-0.58579 0.26779,-1.05442 0.08368,-0.11716 0.167369,-0.21758 0.100421,-0.11716 0.26779,-0.30126 v -0.10042 q 0,-0.21758 0.167368,-0.36822 0.184106,-0.16736 0.552317,-0.28452 l 1.037686,-0.33474 q 0.184105,-0.0669 0.334737,-0.10042 0.167369,-0.0335 0.318,-0.0335 0.184106,0 0.251053,0.0669 0.08369,0.0502 0.184106,0.23432 l 0.167368,0.40168 q 0.03347,0.1339 0.03347,0.23432 0.01674,0.10042 0.01674,0.25105 0,0.20085 -0.150632,0.82011 -0.01674,0.067 -0.03347,0.11716 0,0.45189 -0.08369,0.87031 -0.06695,0.41843 -0.217579,0.83685 v 0.20084 q 0,0.35147 -0.08368,0.78663 -0.08369,0.43516 -0.26779,1.00421 v 0.30127 q 0,0.318 -0.03347,0.60253 -0.03347,0.28452 -0.100421,0.53557 l -0.167369,1.27201 v 0.53558 l -0.06695,0.55231 q -0.100421,0.18411 -0.150632,0.33474 -0.05021,0.15063 -0.05021,0.25105 0,0.0837 0.03347,0.23432 0.05021,0.15063 0.06695,0.21758 v 0.26779 q 0,0.20084 -0.03347,0.41842 -0.01674,0.20084 -0.08368,0.4519 -0.03347,0.0502 -0.05021,0.13389 -0.01674,0.067 -0.01674,0.16737 0.01674,0.0502 0.06695,0.13389 0.05021,0.0837 0.08368,0.15064 0.01674,0.13389 0.01674,0.28452 0.01674,0.15063 0.01674,0.38495 0,0.0502 -0.03347,0.30126 -0.01674,0.25106 -0.03347,0.4519 v 0.88705 q 0,0.75316 0.05021,1.4059 0.06695,0.636 0.184105,1.23853 0.585791,-0.83685 1.004212,-2.09211 0.418422,-1.272 0.502106,-1.47284 l 0.167369,-0.26779 0.03347,-0.4519 q 0.418422,-0.90379 0.719686,-1.74063 0.318,-0.83685 0.552316,-1.65695 l 0.234316,-0.23432 0.03347,-0.71968 q 1.221791,-3.46454 1.606739,-4.8537 0.401685,-1.38916 0.518843,-2.37663 l -0.100421,-0.16737 0.418421,-1.82432 q 0.117158,-0.20084 0.21758,-0.318 0.100421,-0.11716 0.234316,-0.23431 0.334737,-0.35148 0.58579,-0.55232 0.26779,-0.20084 0.401685,-0.20084 0.117158,0 0.217579,0.11716 0.100421,0.10042 0.150632,0.28452 l -0.100421,0.53558 v 0.26779 q -0.01674,0.15063 -0.03347,0.318 0,0.15063 0,0.46863 l -0.100421,0.41843 q 0.03347,0.10042 0.05021,0.20084 0.01674,0.10042 0.01674,0.26779 0,0.15063 -0.01674,0.25105 0,0.0837 -0.01674,0.16737 l -0.06695,0.71968 -0.133895,0.40169 0.06695,0.28453 -0.451895,1.80758 v 0.25105 q -0.284527,0.954 -0.451895,1.65695 -0.150632,0.68621 -0.200843,1.18832 -0.117158,0.16737 -0.200842,0.35147 -0.06695,0.18411 -0.06695,0.33474 0,0.0335 0.01674,0.11716 0.01674,0.0837 0.01674,0.11716 -0.150632,0.40168 -0.251053,0.71968 -0.08368,0.30126 -0.150631,0.55232 l -0.251053,0.20084 q -0.200843,0.93726 -0.334738,1.38916 -0.133895,0.45189 -0.284526,0.83684 -0.21758,0.75316 -0.468633,1.33895 -0.234316,0.58579 -0.518843,1.07116 l -0.100421,0.56905 -0.619264,1.62348 -0.234316,0.36821 q -0.284527,1.17158 -0.669474,1.79085 -0.368211,0.61926 -0.954002,0.954 -0.133895,0.23431 -0.217579,0.30126 -0.06695,0.067 -0.184105,0.067 -0.08369,0 -0.21758,-0.0335 -0.117158,-0.0335 -0.251053,-0.0837 -0.451895,0.25105 -0.669474,0.35147 -0.200843,0.0837 -0.368211,0.0837 -0.06695,0 -0.184106,-0.0167 -0.100421,-0.0335 -0.234316,-0.0837 l -0.485369,-0.25106 q -0.284527,-0.23431 -0.435159,-0.636 -0.150631,-0.40168 -0.217579,-1.12137 l -0.100421,-0.43515 q -0.100421,-0.11716 -0.150632,-0.23432 -0.05021,-0.11716 -0.05021,-0.26779 v -0.25105 -0.40169 q 0,-0.16737 -0.01674,-0.28453 0,-0.13389 -0.01674,-0.26779 l -0.100421,-0.41842 0.100421,-0.40168 -0.133895,-0.48537 0.03347,-0.75316 q -0.05021,-0.318 -0.150632,-0.90379 -0.08368,-0.58579 -0.133895,-0.83684 -0.01674,0.21758 -0.117158,0.38494 -0.100421,0.16737 -0.318,0.33474 l 0.03347,0.16737 -0.719685,1.67369 q -0.167369,0.0837 -0.251053,0.20084 -0.06695,0.10042 -0.06695,0.318 l -0.26779,0.16737 q 0.01674,0.0502 0.05021,0.1841 0.05021,0.11716 0.05021,0.20085 0,0.0502 -0.06695,0.1841 -0.05021,0.1339 -0.133895,0.25105 l -0.887054,1.95822 -1.037686,2.02516 q -0.150632,0.51884 -0.418422,0.82011 -0.251052,0.30126 -0.669474,0.45189 l -0.251053,0.1339 -0.26779,-0.0335 -0.384948,0.10042 q -0.318,-0.0335 -0.669474,-0.88705 -0.334738,-0.83684 -0.80337,-2.74485 l -0.133895,-0.38494 0.03347,-0.71969 -0.133895,-0.36821 -0.06695,-0.35148 -0.100421,-0.16736 q -0.217579,-0.93727 -0.351474,-1.79085 -0.117158,-0.85358 -0.167369,-1.64021 -0.133894,-0.35148 -0.217579,-0.66948 -0.06695,-0.318 -0.08368,-0.61926 l -0.217579,-0.35147 z"
         style="font-size:34.2771px;line-height:125%;font-family:'Staccato222 BT'"
         id="path2746" />
    </g>
  </g>
</svg>
